<svg version="1.1" viewBox="0.0 0.0 800.0 400.0" fill="none" stroke="none" stroke-linecap="square" stroke-miterlimit="10" width="800" height="400" xmlns:xlink="http://www.w3.org/1999/xlink" xmlns="http://www.w3.org/2000/svg"><path fill="#ffffff" d="M0 0L800.0 0L800.0 400.0L0 400.0L0 0Z" fill-rule="nonzero"/><path stroke="#333333" stroke-width="1.0" stroke-linecap="butt" d="M55.5 353.5L780.5 353.5" fill-rule="nonzero"/><path stroke="#cccccc" stroke-width="1.0" stroke-linecap="butt" d="M55.5 280.5L780.5 280.5" fill-rule="nonzero"/><path stroke="#cccccc" stroke-width="1.0" stroke-linecap="butt" d="M55.5 208.5L780.5 208.5" fill-rule="nonzero"/><path stroke="#cccccc" stroke-width="1.0" stroke-linecap="butt" d="M55.5 136.5L780.5 136.5" fill-rule="nonzero"/><path stroke="#cccccc" stroke-width="1.0" stroke-linecap="butt" d="M55.5 64.5L780.5 64.5" fill-rule="nonzero"/><clipPath id="id_0"><path d="M55.0 61.833332L780.0 61.833332L780.0 353.0L55.0 353.0L55.0 61.833332Z" clip-rule="nonzero"/></clipPath><path stroke="#000000" stroke-width="2.0" stroke-linecap="butt" stroke-opacity="0.0" clip-path="url(#id_0)" d="M145.0 353.0L103.0 353.0L103.0 262.0C103.0 260.89542 103.89543 260.0 105.0 260.0L143.0 260.0C144.10457 260.0 145.0 260.89542 145.0 262.0Z" fill-rule="nonzero"/><path fill="#00a2ff" clip-path="url(#id_0)" d="M145.0 353.0L103.0 353.0L103.0 262.0C103.0 260.89542 103.89543 260.0 105.0 260.0L143.0 260.0C144.10457 260.0 145.0 260.89542 145.0 262.0Z" fill-rule="nonzero"/><path stroke="#000000" stroke-width="2.0" stroke-linecap="butt" stroke-opacity="0.0" clip-path="url(#id_0)" d="M281.0 353.0L239.0 353.0L239.0 191.0C239.0 189.89543 239.89543 189.0 241.0 189.0L279.0 189.0C280.10458 189.0 281.0 189.89543 281.0 191.0Z" fill-rule="nonzero"/><path fill="#00a2ff" clip-path="url(#id_0)" d="M281.0 353.0L239.0 353.0L239.0 191.0C239.0 189.89543 239.89543 189.0 241.0 189.0L279.0 189.0C280.10458 189.0 281.0 189.89543 281.0 191.0Z" fill-rule="nonzero"/><path stroke="#000000" stroke-width="2.0" stroke-linecap="butt" stroke-opacity="0.0" clip-path="url(#id_0)" d="M417.0 353.0L375.0 353.0L375.0 224.0C375.0 222.89543 375.89542 222.0 377.0 222.0L415.0 222.0C416.10458 222.0 417.0 222.89543 417.0 224.0Z" fill-rule="nonzero"/><path fill="#00a2ff" clip-path="url(#id_0)" d="M417.0 353.0L375.0 353.0L375.0 224.0C375.0 222.89543 375.89542 222.0 377.0 222.0L415.0 222.0C416.10458 222.0 417.0 222.89543 417.0 224.0Z" fill-rule="nonzero"/><path stroke="#000000" stroke-width="2.0" stroke-linecap="butt" stroke-opacity="0.0" clip-path="url(#id_0)" d="M552.0 353.0L510.0 353.0L510.0 283.0C510.0 281.89542 510.89542 281.0 512.0 281.0L550.0 281.0C551.10455 281.0 552.0 281.89542 552.0 283.0Z" fill-rule="nonzero"/><path fill="#00a2ff" clip-path="url(#id_0)" d="M552.0 353.0L510.0 353.0L510.0 283.0C510.0 281.89542 510.89542 281.0 512.0 281.0L550.0 281.0C551.10455 281.0 552.0 281.89542 552.0 283.0Z" fill-rule="nonzero"/><path stroke="#000000" stroke-width="2.0" stroke-linecap="butt" stroke-opacity="0.0" clip-path="url(#id_0)" d="M688.0 353.0L646.0 353.0L646.0 203.0C646.0 201.89543 646.89545 201.0 648.0 201.0L686.0 201.0C687.10455 201.0 688.0 201.89543 688.0 203.0Z" fill-rule="nonzero"/><path fill="#00a2ff" clip-path="url(#id_0)" d="M688.0 353.0L646.0 353.0L646.0 203.0C646.0 201.89543 646.89545 201.0 648.0 201.0L686.0 201.0C687.10455 201.0 688.0 201.89543 688.0 203.0Z" fill-rule="nonzero"/><path stroke="#000000" stroke-width="2.0" stroke-linecap="butt" stroke-opacity="0.0" clip-path="url(#id_0)" d="M189.0 353.0L147.0 353.0L147.0 242.0C147.0 240.89543 147.89543 240.0 149.0 240.0L187.0 240.0C188.10457 240.0 189.0 240.89543 189.0 242.0Z" fill-rule="nonzero"/><path fill="#43a047" clip-path="url(#id_0)" d="M189.0 353.0L147.0 353.0L147.0 242.0C147.0 240.89543 147.89543 240.0 149.0 240.0L187.0 240.0C188.10457 240.0 189.0 240.89543 189.0 242.0Z" fill-rule="nonzero"/><path stroke="#000000" stroke-width="2.0" stroke-linecap="butt" stroke-opacity="0.0" clip-path="url(#id_0)" d="M325.0 353.0L283.0 353.0L283.0 64.0C283.0 62.89543 283.89542 62.0 285.0 62.0L323.0 62.0C324.10458 62.0 325.0 62.89543 325.0 64.0Z" fill-rule="nonzero"/><path fill="#43a047" clip-path="url(#id_0)" d="M325.0 353.0L283.0 353.0L283.0 64.0C283.0 62.89543 283.89542 62.0 285.0 62.0L323.0 62.0C324.10458 62.0 325.0 62.89543 325.0 64.0Z" fill-rule="nonzero"/><path stroke="#000000" stroke-width="2.0" stroke-linecap="butt" stroke-opacity="0.0" clip-path="url(#id_0)" d="M461.0 353.0L419.0 353.0L419.0 195.0C419.0 193.89543 419.89542 193.0 421.0 193.0L459.0 193.0C460.10458 193.0 461.0 193.89543 461.0 195.0Z" fill-rule="nonzero"/><path fill="#43a047" clip-path="url(#id_0)" d="M461.0 353.0L419.0 353.0L419.0 195.0C419.0 193.89543 419.89542 193.0 421.0 193.0L459.0 193.0C460.10458 193.0 461.0 193.89543 461.0 195.0Z" fill-rule="nonzero"/><path stroke="#000000" stroke-width="2.0" stroke-linecap="butt" stroke-opacity="0.0" clip-path="url(#id_0)" d="M596.0 353.0L554.0 353.0L554.0 277.0C554.0 275.89542 554.89545 275.0 556.0 275.0L594.0 275.0C595.10455 275.0 596.0 275.89542 596.0 277.0Z" fill-rule="nonzero"/><path fill="#43a047" clip-path="url(#id_0)" d="M596.0 353.0L554.0 353.0L554.0 277.0C554.0 275.89542 554.89545 275.0 556.0 275.0L594.0 275.0C595.10455 275.0 596.0 275.89542 596.0 277.0Z" fill-rule="nonzero"/><path stroke="#000000" stroke-width="2.0" stroke-linecap="butt" stroke-opacity="0.0" clip-path="url(#id_0)" d="M732.0 353.0L690.0 353.0L690.0 196.0C690.0 194.89543 690.89545 194.0 692.0 194.0L730.0 194.0C731.10455 194.0 732.0 194.89543 732.0 196.0Z" fill-rule="nonzero"/><path fill="#43a047" clip-path="url(#id_0)" d="M732.0 353.0L690.0 353.0L690.0 196.0C690.0 194.89543 690.89545 194.0 692.0 194.0L730.0 194.0C731.10455 194.0 732.0 194.89543 732.0 196.0Z" fill-rule="nonzero"/><path stroke="#00a2ff" stroke-width="3.0" stroke-linejoin="round" stroke-linecap="round" d="M116.5625 280.19965L116.5625 281.55902L108.984375 281.55902Q108.96875 281.0434 109.15625 280.57465Q109.4375 279.80902 110.078125 279.05902Q110.71875 278.30902 111.921875 277.32465Q113.78125 275.7934 114.4375 274.90277Q115.09375 273.99652 115.09375 273.19965Q115.09375 272.37152 114.5 271.7934Q113.90625 271.21527 112.9375 271.21527Q111.921875 271.21527 111.3125 271.82465Q110.703125 272.43402 110.703125 273.51215L109.25 273.37152Q109.40625 271.74652 110.375 270.90277Q111.34375 270.05902 112.96875 270.05902Q114.625 270.05902 115.578125 270.9809Q116.546875 271.88715 116.546875 273.2309Q116.546875 273.9184 116.265625 274.59027Q115.984375 275.24652 115.328125 275.9809Q114.671875 276.71527 113.15625 277.99652Q111.890625 279.05902 111.53125 279.44965Q111.171875 279.82465 110.9375 280.19965L116.5625 280.19965ZM118.171875 278.55902L119.640625 278.43402Q119.8125 279.51215 120.40625 280.05902Q121.0 280.59027 121.84375 280.59027Q122.859375 280.59027 123.5625 279.82465Q124.265625 279.05902 124.265625 277.7934Q124.265625 276.59027 123.59375 275.90277Q122.921875 275.19965 121.828125 275.19965Q121.140625 275.19965 120.59375 275.51215Q120.046875 275.82465 119.734375 276.30902L118.421875 276.13715L119.53125 270.26215L125.21875 270.26215L125.21875 271.6059L120.65625 271.6059L120.03125 274.68402Q121.0625 273.96527 122.203125 273.96527Q123.703125 273.96527 124.734375 275.01215Q125.765625 276.0434 125.765625 277.6684Q125.765625 279.2309 124.859375 280.3559Q123.75 281.76215 121.84375 281.76215Q120.28125 281.76215 119.296875 280.88715Q118.3125 279.99652 118.171875 278.55902ZM127.953125 281.55902L127.953125 279.94965L129.5625 279.94965L129.5625 281.55902L127.953125 281.55902ZM131.26562 271.6059L131.26562 270.24652L138.67188 270.24652L138.67188 271.34027Q137.57812 272.51215 136.5 274.44965Q135.4375 276.37152 134.84375 278.40277Q134.42188 279.84027 134.3125 281.55902L132.85938 281.55902Q132.89062 280.19965 133.39062 278.2934Q133.90625 276.37152 134.84375 274.6059Q135.79688 272.82465 136.875 271.6059L131.26562 271.6059Z" fill-rule="nonzero"/><path fill="#ffffff" d="M116.5625 280.19965L116.5625 281.55902L108.984375 281.55902Q108.96875 281.0434 109.15625 280.57465Q109.4375 279.80902 110.078125 279.05902Q110.71875 278.30902 111.921875 277.32465Q113.78125 275.7934 114.4375 274.90277Q115.09375 273.99652 115.09375 273.19965Q115.09375 272.37152 114.5 271.7934Q113.90625 271.21527 112.9375 271.21527Q111.921875 271.21527 111.3125 271.82465Q110.703125 272.43402 110.703125 273.51215L109.25 273.37152Q109.40625 271.74652 110.375 270.90277Q111.34375 270.05902 112.96875 270.05902Q114.625 270.05902 115.578125 270.9809Q116.546875 271.88715 116.546875 273.2309Q116.546875 273.9184 116.265625 274.59027Q115.984375 275.24652 115.328125 275.9809Q114.671875 276.71527 113.15625 277.99652Q111.890625 279.05902 111.53125 279.44965Q111.171875 279.82465 110.9375 280.19965L116.5625 280.19965ZM118.171875 278.55902L119.640625 278.43402Q119.8125 279.51215 120.40625 280.05902Q121.0 280.59027 121.84375 280.59027Q122.859375 280.59027 123.5625 279.82465Q124.265625 279.05902 124.265625 277.7934Q124.265625 276.59027 123.59375 275.90277Q122.921875 275.19965 121.828125 275.19965Q121.140625 275.19965 120.59375 275.51215Q120.046875 275.82465 119.734375 276.30902L118.421875 276.13715L119.53125 270.26215L125.21875 270.26215L125.21875 271.6059L120.65625 271.6059L120.03125 274.68402Q121.0625 273.96527 122.203125 273.96527Q123.703125 273.96527 124.734375 275.01215Q125.765625 276.0434 125.765625 277.6684Q125.765625 279.2309 124.859375 280.3559Q123.75 281.76215 121.84375 281.76215Q120.28125 281.76215 119.296875 280.88715Q118.3125 279.99652 118.171875 278.55902ZM127.953125 281.55902L127.953125 279.94965L129.5625 279.94965L129.5625 281.55902L127.953125 281.55902ZM131.26562 271.6059L131.26562 270.24652L138.67188 270.24652L138.67188 271.34027Q137.57812 272.51215 136.5 274.44965Q135.4375 276.37152 134.84375 278.40277Q134.42188 279.84027 134.3125 281.55902L132.85938 281.55902Q132.89062 280.19965 133.39062 278.2934Q133.90625 276.37152 134.84375 274.6059Q135.79688 272.82465 136.875 271.6059L131.26562 271.6059Z" fill-rule="nonzero"/><path stroke="#00a2ff" stroke-width="3.0" stroke-linejoin="round" stroke-linecap="round" d="M249.67188 210.03172L249.67188 207.28172L244.70312 207.28172L244.70312 206.00047L249.9375 198.5786L251.07812 198.5786L251.07812 206.00047L252.625 206.00047L252.625 207.28172L251.07812 207.28172L251.07812 210.03172L249.67188 210.03172ZM249.67188 206.00047L249.67188 200.8286L246.09375 206.00047L249.67188 206.00047ZM254.17188 207.03172L255.64062 206.90672Q255.8125 207.98485 256.40625 208.53172Q257.0 209.06297 257.84375 209.06297Q258.85938 209.06297 259.5625 208.29735Q260.26562 207.53172 260.26562 206.2661Q260.26562 205.06297 259.59375 204.37547Q258.92188 203.67235 257.82812 203.67235Q257.14062 203.67235 256.59375 203.98485Q256.04688 204.29735 255.73438 204.78172L254.42188 204.60985L255.53125 198.73485L261.21875 198.73485L261.21875 200.0786L256.65625 200.0786L256.03125 203.15672Q257.0625 202.43797 258.20312 202.43797Q259.70312 202.43797 260.73438 203.48485Q261.76562 204.5161 261.76562 206.1411Q261.76562 207.7036 260.85938 208.8286Q259.75 210.23485 257.84375 210.23485Q256.28125 210.23485 255.29688 209.35985Q254.3125 208.46922 254.17188 207.03172ZM263.95312 210.03172L263.95312 208.42235L265.5625 208.42235L265.5625 210.03172L263.95312 210.03172ZM267.17188 207.03172L268.64062 206.90672Q268.8125 207.98485 269.40625 208.53172Q270.0 209.06297 270.84375 209.06297Q271.85938 209.06297 272.5625 208.29735Q273.26562 207.53172 273.26562 206.2661Q273.26562 205.06297 272.59375 204.37547Q271.92188 203.67235 270.82812 203.67235Q270.14062 203.67235 269.59375 203.98485Q269.04688 204.29735 268.73438 204.78172L267.42188 204.60985L268.53125 198.73485L274.21875 198.73485L274.21875 200.0786L269.65625 200.0786L269.03125 203.15672Q270.0625 202.43797 271.20312 202.43797Q272.70312 202.43797 273.73438 203.48485Q274.76562 204.5161 274.76562 206.1411Q274.76562 207.7036 273.85938 208.8286Q272.75 210.23485 270.84375 210.23485Q269.28125 210.23485 268.29688 209.35985Q267.3125 208.46922 267.17188 207.03172Z" fill-rule="nonzero"/><path fill="#ffffff" d="M249.67188 210.03172L249.67188 207.28172L244.70312 207.28172L244.70312 206.00047L249.9375 198.5786L251.07812 198.5786L251.07812 206.00047L252.625 206.00047L252.625 207.28172L251.07812 207.28172L251.07812 210.03172L249.67188 210.03172ZM249.67188 206.00047L249.67188 200.8286L246.09375 206.00047L249.67188 206.00047ZM254.17188 207.03172L255.64062 206.90672Q255.8125 207.98485 256.40625 208.53172Q257.0 209.06297 257.84375 209.06297Q258.85938 209.06297 259.5625 208.29735Q260.26562 207.53172 260.26562 206.2661Q260.26562 205.06297 259.59375 204.37547Q258.92188 203.67235 257.82812 203.67235Q257.14062 203.67235 256.59375 203.98485Q256.04688 204.29735 255.73438 204.78172L254.42188 204.60985L255.53125 198.73485L261.21875 198.73485L261.21875 200.0786L256.65625 200.0786L256.03125 203.15672Q257.0625 202.43797 258.20312 202.43797Q259.70312 202.43797 260.73438 203.48485Q261.76562 204.5161 261.76562 206.1411Q261.76562 207.7036 260.85938 208.8286Q259.75 210.23485 257.84375 210.23485Q256.28125 210.23485 255.29688 209.35985Q254.3125 208.46922 254.17188 207.03172ZM263.95312 210.03172L263.95312 208.42235L265.5625 208.42235L265.5625 210.03172L263.95312 210.03172ZM267.17188 207.03172L268.64062 206.90672Q268.8125 207.98485 269.40625 208.53172Q270.0 209.06297 270.84375 209.06297Q271.85938 209.06297 272.5625 208.29735Q273.26562 207.53172 273.26562 206.2661Q273.26562 205.06297 272.59375 204.37547Q271.92188 203.67235 270.82812 203.67235Q270.14062 203.67235 269.59375 203.98485Q269.04688 204.29735 268.73438 204.78172L267.42188 204.60985L268.53125 198.73485L274.21875 198.73485L274.21875 200.0786L269.65625 200.0786L269.03125 203.15672Q270.0625 202.43797 271.20312 202.43797Q272.70312 202.43797 273.73438 203.48485Q274.76562 204.5161 274.76562 206.1411Q274.76562 207.7036 273.85938 208.8286Q272.75 210.23485 270.84375 210.23485Q269.28125 210.23485 268.29688 209.35985Q267.3125 208.46922 267.17188 207.03172Z" fill-rule="nonzero"/><path stroke="#00a2ff" stroke-width="3.0" stroke-linejoin="round" stroke-linecap="round" d="M381.17188 240.23538L382.57812 240.04788Q382.82812 241.251 383.40625 241.78226Q383.98438 242.29788 384.82812 242.29788Q385.8125 242.29788 386.5 241.61038Q387.1875 240.92288 387.1875 239.90726Q387.1875 238.9385 386.54688 238.3135Q385.92188 237.6885 384.9375 237.6885Q384.54688 237.6885 383.95312 237.84476L384.10938 236.61038Q384.25 236.626 384.32812 236.626Q385.23438 236.626 385.95312 236.15726Q386.67188 235.6885 386.67188 234.70413Q386.67188 233.9385 386.14062 233.4385Q385.625 232.92288 384.79688 232.92288Q383.96875 232.92288 383.42188 233.4385Q382.875 233.95413 382.71875 234.98538L381.3125 234.73538Q381.57812 233.3135 382.48438 232.54788Q383.40625 231.76663 384.76562 231.76663Q385.70312 231.76663 386.48438 232.17288Q387.28125 232.5635 387.6875 233.26663Q388.10938 233.95413 388.10938 234.73538Q388.10938 235.48538 387.70312 236.09476Q387.3125 236.70413 386.53125 237.0635Q387.54688 237.29788 388.10938 238.03226Q388.67188 238.76663 388.67188 239.876Q388.67188 241.376 387.57812 242.42288Q386.48438 243.46976 384.8125 243.46976Q383.3125 243.46976 382.3125 242.57913Q381.3125 241.67288 381.17188 240.23538ZM397.46875 234.61038L396.0625 234.71976Q395.875 233.89163 395.53125 233.51663Q394.96875 232.92288 394.125 232.92288Q393.45312 232.92288 392.95312 233.29788Q392.28125 233.78226 391.89062 234.71976Q391.51562 235.64163 391.5 237.36038Q392.01562 236.57913 392.75 236.20413Q393.48438 235.82913 394.28125 235.82913Q395.6875 235.82913 396.67188 236.876Q397.67188 237.90726 397.67188 239.54788Q397.67188 240.626 397.20312 241.54788Q396.73438 242.46976 395.92188 242.96976Q395.10938 243.46976 394.07812 243.46976Q392.32812 243.46976 391.21875 242.17288Q390.10938 240.876 390.10938 237.90726Q390.10938 234.57913 391.32812 233.07913Q392.40625 231.76663 394.21875 231.76663Q395.5625 231.76663 396.42188 232.53226Q397.29688 233.28226 397.46875 234.61038ZM391.71875 239.54788Q391.71875 240.28226 392.03125 240.95413Q392.34375 241.61038 392.89062 241.95413Q393.45312 242.29788 394.0625 242.29788Q394.95312 242.29788 395.59375 241.57913Q396.23438 240.86038 396.23438 239.626Q396.23438 238.4385 395.59375 237.76663Q394.96875 237.07913 394.0 237.07913Q393.04688 237.07913 392.375 237.76663Q391.71875 238.4385 391.71875 239.54788ZM399.95312 243.26663L399.95312 241.65726L401.5625 241.65726L401.5625 243.26663L399.95312 243.26663ZM403.17188 240.23538L404.57812 240.04788Q404.82812 241.251 405.40625 241.78226Q405.98438 242.29788 406.82812 242.29788Q407.8125 242.29788 408.5 241.61038Q409.1875 240.92288 409.1875 239.90726Q409.1875 238.9385 408.54688 238.3135Q407.92188 237.6885 406.9375 237.6885Q406.54688 237.6885 405.95312 237.84476L406.10938 236.61038Q406.25 236.626 406.32812 236.626Q407.23438 236.626 407.95312 236.15726Q408.67188 235.6885 408.67188 234.70413Q408.67188 233.9385 408.14062 233.4385Q407.625 232.92288 406.79688 232.92288Q405.96875 232.92288 405.42188 233.4385Q404.875 233.95413 404.71875 234.98538L403.3125 234.73538Q403.57812 233.3135 404.48438 232.54788Q405.40625 231.76663 406.76562 231.76663Q407.70312 231.76663 408.48438 232.17288Q409.28125 232.5635 409.6875 233.26663Q410.10938 233.95413 410.10938 234.73538Q410.10938 235.48538 409.70312 236.09476Q409.3125 236.70413 408.53125 237.0635Q409.54688 237.29788 410.10938 238.03226Q410.67188 238.76663 410.67188 239.876Q410.67188 241.376 409.57812 242.42288Q408.48438 243.46976 406.8125 243.46976Q405.3125 243.46976 404.3125 242.57913Q403.3125 241.67288 403.17188 240.23538Z" fill-rule="nonzero"/><path fill="#ffffff" d="M381.17188 240.23538L382.57812 240.04788Q382.82812 241.251 383.40625 241.78226Q383.98438 242.29788 384.82812 242.29788Q385.8125 242.29788 386.5 241.61038Q387.1875 240.92288 387.1875 239.90726Q387.1875 238.9385 386.54688 238.3135Q385.92188 237.6885 384.9375 237.6885Q384.54688 237.6885 383.95312 237.84476L384.10938 236.61038Q384.25 236.626 384.32812 236.626Q385.23438 236.626 385.95312 236.15726Q386.67188 235.6885 386.67188 234.70413Q386.67188 233.9385 386.14062 233.4385Q385.625 232.92288 384.79688 232.92288Q383.96875 232.92288 383.42188 233.4385Q382.875 233.95413 382.71875 234.98538L381.3125 234.73538Q381.57812 233.3135 382.48438 232.54788Q383.40625 231.76663 384.76562 231.76663Q385.70312 231.76663 386.48438 232.17288Q387.28125 232.5635 387.6875 233.26663Q388.10938 233.95413 388.10938 234.73538Q388.10938 235.48538 387.70312 236.09476Q387.3125 236.70413 386.53125 237.0635Q387.54688 237.29788 388.10938 238.03226Q388.67188 238.76663 388.67188 239.876Q388.67188 241.376 387.57812 242.42288Q386.48438 243.46976 384.8125 243.46976Q383.3125 243.46976 382.3125 242.57913Q381.3125 241.67288 381.17188 240.23538ZM397.46875 234.61038L396.0625 234.71976Q395.875 233.89163 395.53125 233.51663Q394.96875 232.92288 394.125 232.92288Q393.45312 232.92288 392.95312 233.29788Q392.28125 233.78226 391.89062 234.71976Q391.51562 235.64163 391.5 237.36038Q392.01562 236.57913 392.75 236.20413Q393.48438 235.82913 394.28125 235.82913Q395.6875 235.82913 396.67188 236.876Q397.67188 237.90726 397.67188 239.54788Q397.67188 240.626 397.20312 241.54788Q396.73438 242.46976 395.92188 242.96976Q395.10938 243.46976 394.07812 243.46976Q392.32812 243.46976 391.21875 242.17288Q390.10938 240.876 390.10938 237.90726Q390.10938 234.57913 391.32812 233.07913Q392.40625 231.76663 394.21875 231.76663Q395.5625 231.76663 396.42188 232.53226Q397.29688 233.28226 397.46875 234.61038ZM391.71875 239.54788Q391.71875 240.28226 392.03125 240.95413Q392.34375 241.61038 392.89062 241.95413Q393.45312 242.29788 394.0625 242.29788Q394.95312 242.29788 395.59375 241.57913Q396.23438 240.86038 396.23438 239.626Q396.23438 238.4385 395.59375 237.76663Q394.96875 237.07913 394.0 237.07913Q393.04688 237.07913 392.375 237.76663Q391.71875 238.4385 391.71875 239.54788ZM399.95312 243.26663L399.95312 241.65726L401.5625 241.65726L401.5625 243.26663L399.95312 243.26663ZM403.17188 240.23538L404.57812 240.04788Q404.82812 241.251 405.40625 241.78226Q405.98438 242.29788 406.82812 242.29788Q407.8125 242.29788 408.5 241.61038Q409.1875 240.92288 409.1875 239.90726Q409.1875 238.9385 408.54688 238.3135Q407.92188 237.6885 406.9375 237.6885Q406.54688 237.6885 405.95312 237.84476L406.10938 236.61038Q406.25 236.626 406.32812 236.626Q407.23438 236.626 407.95312 236.15726Q408.67188 235.6885 408.67188 234.70413Q408.67188 233.9385 408.14062 233.4385Q407.625 232.92288 406.79688 232.92288Q405.96875 232.92288 405.42188 233.4385Q404.875 233.95413 404.71875 234.98538L403.3125 234.73538Q403.57812 233.3135 404.48438 232.54788Q405.40625 231.76663 406.76562 231.76663Q407.70312 231.76663 408.48438 232.17288Q409.28125 232.5635 409.6875 233.26663Q410.10938 233.95413 410.10938 234.73538Q410.10938 235.48538 409.70312 236.09476Q409.3125 236.70413 408.53125 237.0635Q409.54688 237.29788 410.10938 238.03226Q410.67188 238.76663 410.67188 239.876Q410.67188 241.376 409.57812 242.42288Q408.48438 243.46976 406.8125 243.46976Q405.3125 243.46976 404.3125 242.57913Q403.3125 241.67288 403.17188 240.23538Z" fill-rule="nonzero"/><path stroke="#00a2ff" stroke-width="3.0" stroke-linejoin="round" stroke-linecap="round" d="M521.46875 302.8727L520.0625 302.8727L520.0625 293.90396Q519.5469 294.38834 518.71875 294.8727Q517.90625 295.3571 517.25 295.6071L517.25 294.2477Q518.4219 293.6852 519.2969 292.90396Q520.1875 292.1071 520.5625 291.3727L521.46875 291.3727L521.46875 302.8727ZM525.375 300.21646L526.7344 300.09146Q526.90625 301.0446 527.3906 301.4821Q527.875 301.90396 528.625 301.90396Q529.28125 301.90396 529.7656 301.6071Q530.25 301.3102 530.5625 300.82584Q530.875 300.32584 531.0781 299.4821Q531.2969 298.63834 531.2969 297.76334Q531.2969 297.6696 531.2969 297.4821Q530.875 298.15396 530.1406 298.57584Q529.40625 298.9821 528.5625 298.9821Q527.1406 298.9821 526.15625 297.95084Q525.1719 296.9196 525.1719 295.2321Q525.1719 293.4977 526.1875 292.4352Q527.21875 291.3727 528.7656 291.3727Q529.8906 291.3727 530.8125 291.9821Q531.7344 292.57584 532.21875 293.6852Q532.7031 294.7946 532.7031 296.90396Q532.7031 299.1071 532.21875 300.40396Q531.75 301.70084 530.7969 302.38834Q529.8594 303.07584 528.59375 303.07584Q527.25 303.07584 526.3906 302.32584Q525.5469 301.57584 525.375 300.21646ZM531.1406 295.1696Q531.1406 293.95084 530.4844 293.2477Q529.84375 292.52896 528.9375 292.52896Q528.0 292.52896 527.2969 293.2946Q526.6094 294.0602 526.6094 295.27896Q526.6094 296.3727 527.2656 297.0602Q527.9375 297.7477 528.90625 297.7477Q529.875 297.7477 530.5 297.0602Q531.1406 296.3727 531.1406 295.1696ZM534.9531 302.8727L534.9531 301.26334L536.5625 301.26334L536.5625 302.8727L534.9531 302.8727ZM540.3281 296.65396Q539.4531 296.34146 539.03125 295.7477Q538.6094 295.15396 538.6094 294.32584Q538.6094 293.07584 539.5 292.2321Q540.40625 291.3727 541.90625 291.3727Q543.40625 291.3727 544.3125 292.2477Q545.2344 293.1071 545.2344 294.3571Q545.2344 295.15396 544.8125 295.7477Q544.3906 296.34146 543.5469 296.65396Q544.59375 296.9977 545.1406 297.76334Q545.7031 298.52896 545.7031 299.59146Q545.7031 301.0602 544.65625 302.07584Q543.625 303.07584 541.9219 303.07584Q540.2344 303.07584 539.1875 302.07584Q538.15625 301.0602 538.15625 299.5602Q538.15625 298.4352 538.71875 297.6852Q539.28125 296.9352 540.3281 296.65396ZM540.0469 294.27896Q540.0469 295.09146 540.5625 295.6071Q541.09375 296.1227 541.9375 296.1227Q542.75 296.1227 543.2656 295.6071Q543.78125 295.09146 543.78125 294.3571Q543.78125 293.57584 543.25 293.0602Q542.71875 292.52896 541.9219 292.52896Q541.1094 292.52896 540.5781 293.0446Q540.0469 293.5602 540.0469 294.27896ZM539.59375 299.5602Q539.59375 300.1696 539.875 300.7321Q540.1719 301.2946 540.7344 301.6071Q541.2969 301.90396 541.9375 301.90396Q542.9531 301.90396 543.6094 301.26334Q544.2656 300.6071 544.2656 299.6071Q544.2656 298.59146 543.5781 297.9352Q542.90625 297.26334 541.8906 297.26334Q540.90625 297.26334 540.25 297.9196Q539.59375 298.57584 539.59375 299.5602Z" fill-rule="nonzero"/><path fill="#ffffff" d="M521.46875 302.8727L520.0625 302.8727L520.0625 293.90396Q519.5469 294.38834 518.71875 294.8727Q517.90625 295.3571 517.25 295.6071L517.25 294.2477Q518.4219 293.6852 519.2969 292.90396Q520.1875 292.1071 520.5625 291.3727L521.46875 291.3727L521.46875 302.8727ZM525.375 300.21646L526.7344 300.09146Q526.90625 301.0446 527.3906 301.4821Q527.875 301.90396 528.625 301.90396Q529.28125 301.90396 529.7656 301.6071Q530.25 301.3102 530.5625 300.82584Q530.875 300.32584 531.0781 299.4821Q531.2969 298.63834 531.2969 297.76334Q531.2969 297.6696 531.2969 297.4821Q530.875 298.15396 530.1406 298.57584Q529.40625 298.9821 528.5625 298.9821Q527.1406 298.9821 526.15625 297.95084Q525.1719 296.9196 525.1719 295.2321Q525.1719 293.4977 526.1875 292.4352Q527.21875 291.3727 528.7656 291.3727Q529.8906 291.3727 530.8125 291.9821Q531.7344 292.57584 532.21875 293.6852Q532.7031 294.7946 532.7031 296.90396Q532.7031 299.1071 532.21875 300.40396Q531.75 301.70084 530.7969 302.38834Q529.8594 303.07584 528.59375 303.07584Q527.25 303.07584 526.3906 302.32584Q525.5469 301.57584 525.375 300.21646ZM531.1406 295.1696Q531.1406 293.95084 530.4844 293.2477Q529.84375 292.52896 528.9375 292.52896Q528.0 292.52896 527.2969 293.2946Q526.6094 294.0602 526.6094 295.27896Q526.6094 296.3727 527.2656 297.0602Q527.9375 297.7477 528.90625 297.7477Q529.875 297.7477 530.5 297.0602Q531.1406 296.3727 531.1406 295.1696ZM534.9531 302.8727L534.9531 301.26334L536.5625 301.26334L536.5625 302.8727L534.9531 302.8727ZM540.3281 296.65396Q539.4531 296.34146 539.03125 295.7477Q538.6094 295.15396 538.6094 294.32584Q538.6094 293.07584 539.5 292.2321Q540.40625 291.3727 541.90625 291.3727Q543.40625 291.3727 544.3125 292.2477Q545.2344 293.1071 545.2344 294.3571Q545.2344 295.15396 544.8125 295.7477Q544.3906 296.34146 543.5469 296.65396Q544.59375 296.9977 545.1406 297.76334Q545.7031 298.52896 545.7031 299.59146Q545.7031 301.0602 544.65625 302.07584Q543.625 303.07584 541.9219 303.07584Q540.2344 303.07584 539.1875 302.07584Q538.15625 301.0602 538.15625 299.5602Q538.15625 298.4352 538.71875 297.6852Q539.28125 296.9352 540.3281 296.65396ZM540.0469 294.27896Q540.0469 295.09146 540.5625 295.6071Q541.09375 296.1227 541.9375 296.1227Q542.75 296.1227 543.2656 295.6071Q543.78125 295.09146 543.78125 294.3571Q543.78125 293.57584 543.25 293.0602Q542.71875 292.52896 541.9219 292.52896Q541.1094 292.52896 540.5781 293.0446Q540.0469 293.5602 540.0469 294.27896ZM539.59375 299.5602Q539.59375 300.1696 539.875 300.7321Q540.1719 301.2946 540.7344 301.6071Q541.2969 301.90396 541.9375 301.90396Q542.9531 301.90396 543.6094 301.26334Q544.2656 300.6071 544.2656 299.6071Q544.2656 298.59146 543.5781 297.9352Q542.90625 297.26334 541.8906 297.26334Q540.90625 297.26334 540.25 297.9196Q539.59375 298.57584 539.59375 299.5602Z" fill-rule="nonzero"/><path stroke="#00a2ff" stroke-width="3.0" stroke-linejoin="round" stroke-linecap="round" d="M656.6719 222.31418L656.6719 219.56418L651.7031 219.56418L651.7031 218.28293L656.9375 210.86105L658.0781 210.86105L658.0781 218.28293L659.625 218.28293L659.625 219.56418L658.0781 219.56418L658.0781 222.31418L656.6719 222.31418ZM656.6719 218.28293L656.6719 213.11105L653.09375 218.28293L656.6719 218.28293ZM668.5625 220.9548L668.5625 222.31418L660.9844 222.31418Q660.96875 221.79855 661.15625 221.3298Q661.4375 220.56418 662.0781 219.81418Q662.71875 219.06418 663.9219 218.0798Q665.78125 216.54855 666.4375 215.65793Q667.09375 214.75168 667.09375 213.9548Q667.09375 213.12668 666.5 212.54855Q665.90625 211.97043 664.9375 211.97043Q663.9219 211.97043 663.3125 212.5798Q662.7031 213.18918 662.7031 214.2673L661.25 214.12668Q661.40625 212.50168 662.375 211.65793Q663.34375 210.81418 664.96875 210.81418Q666.625 210.81418 667.5781 211.73605Q668.5469 212.6423 668.5469 213.98605Q668.5469 214.67355 668.2656 215.34543Q667.9844 216.00168 667.3281 216.73605Q666.6719 217.47043 665.15625 218.75168Q663.8906 219.81418 663.53125 220.2048Q663.1719 220.5798 662.9375 220.9548L668.5625 220.9548ZM670.9531 222.31418L670.9531 220.7048L672.5625 220.7048L672.5625 222.31418L670.9531 222.31418ZM679.46875 222.31418L678.0625 222.31418L678.0625 213.34543Q677.5469 213.8298 676.71875 214.31418Q675.90625 214.79855 675.25 215.04855L675.25 213.68918Q676.4219 213.12668 677.2969 212.34543Q678.1875 211.54855 678.5625 210.81418L679.46875 210.81418L679.46875 222.31418Z" fill-rule="nonzero"/><path fill="#ffffff" d="M656.6719 222.31418L656.6719 219.56418L651.7031 219.56418L651.7031 218.28293L656.9375 210.86105L658.0781 210.86105L658.0781 218.28293L659.625 218.28293L659.625 219.56418L658.0781 219.56418L658.0781 222.31418L656.6719 222.31418ZM656.6719 218.28293L656.6719 213.11105L653.09375 218.28293L656.6719 218.28293ZM668.5625 220.9548L668.5625 222.31418L660.9844 222.31418Q660.96875 221.79855 661.15625 221.3298Q661.4375 220.56418 662.0781 219.81418Q662.71875 219.06418 663.9219 218.0798Q665.78125 216.54855 666.4375 215.65793Q667.09375 214.75168 667.09375 213.9548Q667.09375 213.12668 666.5 212.54855Q665.90625 211.97043 664.9375 211.97043Q663.9219 211.97043 663.3125 212.5798Q662.7031 213.18918 662.7031 214.2673L661.25 214.12668Q661.40625 212.50168 662.375 211.65793Q663.34375 210.81418 664.96875 210.81418Q666.625 210.81418 667.5781 211.73605Q668.5469 212.6423 668.5469 213.98605Q668.5469 214.67355 668.2656 215.34543Q667.9844 216.00168 667.3281 216.73605Q666.6719 217.47043 665.15625 218.75168Q663.8906 219.81418 663.53125 220.2048Q663.1719 220.5798 662.9375 220.9548L668.5625 220.9548ZM670.9531 222.31418L670.9531 220.7048L672.5625 220.7048L672.5625 222.31418L670.9531 222.31418ZM679.46875 222.31418L678.0625 222.31418L678.0625 213.34543Q677.5469 213.8298 676.71875 214.31418Q675.90625 214.79855 675.25 215.04855L675.25 213.68918Q676.4219 213.12668 677.2969 212.34543Q678.1875 211.54855 678.5625 210.81418L679.46875 210.81418L679.46875 222.31418Z" fill-rule="nonzero"/><path stroke="#43a047" stroke-width="3.0" stroke-linejoin="round" stroke-linecap="round" d="M153.17188 257.93658L154.57812 257.74908Q154.82812 258.9522 155.40625 259.48346Q155.98438 259.99908 156.82812 259.99908Q157.8125 259.99908 158.5 259.31158Q159.1875 258.62408 159.1875 257.60846Q159.1875 256.6397 158.54688 256.0147Q157.92188 255.3897 156.9375 255.3897Q156.54688 255.3897 155.95312 255.54594L156.10938 254.31157Q156.25 254.3272 156.32812 254.3272Q157.23438 254.3272 157.95312 253.85844Q158.67188 253.3897 158.67188 252.40532Q158.67188 251.6397 158.14062 251.1397Q157.625 250.62407 156.79688 250.62407Q155.96875 250.62407 155.42188 251.1397Q154.875 251.65532 154.71875 252.68657L153.3125 252.43657Q153.57812 251.0147 154.48438 250.24907Q155.40625 249.46782 156.76562 249.46782Q157.70312 249.46782 158.48438 249.87407Q159.28125 250.2647 159.6875 250.96782Q160.10938 251.65532 160.10938 252.43657Q160.10938 253.18657 159.70312 253.79594Q159.3125 254.40532 158.53125 254.7647Q159.54688 254.99907 160.10938 255.73344Q160.67188 256.46783 160.67188 257.5772Q160.67188 259.0772 159.57812 260.12408Q158.48438 261.17096 156.8125 261.17096Q155.3125 261.17096 154.3125 260.28033Q153.3125 259.37408 153.17188 257.93658ZM167.46875 260.96783L166.0625 260.96783L166.0625 251.99907Q165.54688 252.48344 164.71875 252.96782Q163.90625 253.4522 163.25 253.7022L163.25 252.34282Q164.42188 251.78032 165.29688 250.99907Q166.1875 250.2022 166.5625 249.46782L167.46875 249.46782L167.46875 260.96783ZM171.95312 260.96783L171.95312 259.35846L173.5625 259.35846L173.5625 260.96783L171.95312 260.96783ZM179.67188 260.96783L179.67188 258.21783L174.70312 258.21783L174.70312 256.93658L179.9375 249.5147L181.07812 249.5147L181.07812 256.93658L182.625 256.93658L182.625 258.21783L181.07812 258.21783L181.07812 260.96783L179.67188 260.96783ZM179.67188 256.93658L179.67188 251.7647L176.09375 256.93658L179.67188 256.93658Z" fill-rule="nonzero"/><path fill="#ffffff" d="M153.17188 257.93658L154.57812 257.74908Q154.82812 258.9522 155.40625 259.48346Q155.98438 259.99908 156.82812 259.99908Q157.8125 259.99908 158.5 259.31158Q159.1875 258.62408 159.1875 257.60846Q159.1875 256.6397 158.54688 256.0147Q157.92188 255.38971 156.9375 255.38971Q156.54688 255.38971 155.95312 255.54596L156.10938 254.31158Q156.25 254.32721 156.32812 254.32721Q157.23438 254.32721 157.95312 253.85846Q158.67188 253.38971 158.67188 252.40533Q158.67188 251.63971 158.14062 251.13971Q157.625 250.62408 156.79688 250.62408Q155.96875 250.62408 155.42188 251.13971Q154.875 251.65533 154.71875 252.68658L153.3125 252.43658Q153.57812 251.01471 154.48438 250.24908Q155.40625 249.46783 156.76562 249.46783Q157.70312 249.46783 158.48438 249.87408Q159.28125 250.26471 159.6875 250.96783Q160.10938 251.65533 160.10938 252.43658Q160.10938 253.18658 159.70312 253.79596Q159.3125 254.40533 158.53125 254.76471Q159.54688 254.99908 160.10938 255.73346Q160.67188 256.46783 160.67188 257.5772Q160.67188 259.0772 159.57812 260.12408Q158.48438 261.17096 156.8125 261.17096Q155.3125 261.17096 154.3125 260.28033Q153.3125 259.37408 153.17188 257.93658ZM167.46875 260.96783L166.0625 260.96783L166.0625 251.99908Q165.54688 252.48346 164.71875 252.96783Q163.90625 253.45221 163.25 253.70221L163.25 252.34283Q164.42188 251.78033 165.29688 250.99908Q166.1875 250.20221 166.5625 249.46783L167.46875 249.46783L167.46875 260.96783ZM171.95312 260.96783L171.95312 259.35846L173.5625 259.35846L173.5625 260.96783L171.95312 260.96783ZM179.67188 260.96783L179.67188 258.21783L174.70312 258.21783L174.70312 256.93658L179.9375 249.51471L181.07812 249.51471L181.07812 256.93658L182.625 256.93658L182.625 258.21783L181.07812 258.21783L181.07812 260.96783L179.67188 260.96783ZM179.67188 256.93658L179.67188 251.76471L176.09375 256.93658L179.67188 256.93658Z" fill-rule="nonzero"/><path stroke="#43a047" stroke-width="3.0" stroke-linejoin="round" stroke-linecap="round" d="M291.32812 77.01458Q290.45312 76.70208 290.03125 76.10833Q289.60938 75.51458 289.60938 74.686455Q289.60938 73.436455 290.5 72.592705Q291.40625 71.73333 292.90625 71.73333Q294.40625 71.73333 295.3125 72.60833Q296.23438 73.467705 296.23438 74.717705Q296.23438 75.51458 295.8125 76.10833Q295.39062 76.70208 294.54688 77.01458Q295.59375 77.35833 296.14062 78.123955Q296.70312 78.88958 296.70312 79.95208Q296.70312 81.42083 295.65625 82.436455Q294.625 83.436455 292.92188 83.436455Q291.23438 83.436455 290.1875 82.436455Q289.15625 81.42083 289.15625 79.92083Q289.15625 78.79583 289.71875 78.04583Q290.28125 77.29583 291.32812 77.01458ZM291.04688 74.63958Q291.04688 75.45208 291.5625 75.967705Q292.09375 76.48333 292.9375 76.48333Q293.75 76.48333 294.26562 75.967705Q294.78125 75.45208 294.78125 74.717705Q294.78125 73.936455 294.25 73.42083Q293.71875 72.88958 292.92188 72.88958Q292.10938 72.88958 291.57812 73.405205Q291.04688 73.92083 291.04688 74.63958ZM290.59375 79.92083Q290.59375 80.530205 290.875 81.092705Q291.17188 81.655205 291.73438 81.967705Q292.29688 82.26458 292.9375 82.26458Q293.95312 82.26458 294.60938 81.623955Q295.26562 80.967705 295.26562 79.967705Q295.26562 78.95208 294.57812 78.29583Q293.90625 77.623955 292.89062 77.623955Q291.90625 77.623955 291.25 78.280205Q290.59375 78.936455 290.59375 79.92083ZM298.17188 77.57708Q298.17188 75.54583 298.57812 74.311455Q299.0 73.07708 299.82812 72.405205Q300.65625 71.73333 301.90625 71.73333Q302.82812 71.73333 303.51562 72.10833Q304.21875 72.467705 304.67188 73.17083Q305.125 73.873955 305.375 74.873955Q305.64062 75.873955 305.64062 77.57708Q305.64062 79.592705 305.21875 80.842705Q304.8125 82.07708 303.98438 82.76458Q303.15625 83.436455 301.90625 83.436455Q300.25 83.436455 299.29688 82.23333Q298.17188 80.811455 298.17188 77.57708ZM299.60938 77.57708Q299.60938 80.405205 300.26562 81.342705Q300.9375 82.26458 301.90625 82.26458Q302.875 82.26458 303.53125 81.32708Q304.1875 80.38958 304.1875 77.57708Q304.1875 74.748955 303.53125 73.82708Q302.875 72.88958 301.89062 72.88958Q300.92188 72.88958 300.34375 73.717705Q299.60938 74.76458 299.60938 77.57708ZM307.95312 83.23333L307.95312 81.623955L309.5625 81.623955L309.5625 83.23333L307.95312 83.23333ZM318.46875 74.57708L317.0625 74.686455Q316.875 73.85833 316.53125 73.48333Q315.96875 72.88958 315.125 72.88958Q314.45312 72.88958 313.95312 73.26458Q313.28125 73.748955 312.89062 74.686455Q312.51562 75.60833 312.5 77.32708Q313.01562 76.54583 313.75 76.17083Q314.48438 75.79583 315.28125 75.79583Q316.6875 75.79583 317.67188 76.842705Q318.67188 77.873955 318.67188 79.51458Q318.67188 80.592705 318.20312 81.51458Q317.73438 82.436455 316.92188 82.936455Q316.10938 83.436455 315.07812 83.436455Q313.32812 83.436455 312.21875 82.13958Q311.10938 80.842705 311.10938 77.873955Q311.10938 74.54583 312.32812 73.04583Q313.40625 71.73333 315.21875 71.73333Q316.5625 71.73333 317.42188 72.498955Q318.29688 73.248955 318.46875 74.57708ZM312.71875 79.51458Q312.71875 80.248955 313.03125 80.92083Q313.34375 81.57708 313.89062 81.92083Q314.45312 82.26458 315.0625 82.26458Q315.95312 82.26458 316.59375 81.54583Q317.23438 80.82708 317.23438 79.592705Q317.23438 78.405205 316.59375 77.73333Q315.96875 77.04583 315.0 77.04583Q314.04688 77.04583 313.375 77.73333Q312.71875 78.405205 312.71875 79.51458Z" fill-rule="nonzero"/><path fill="#ffffff" d="M291.32812 77.01458Q290.45312 76.70208 290.03125 76.10833Q289.60938 75.51458 289.60938 74.686455Q289.60938 73.436455 290.5 72.592705Q291.40625 71.73333 292.90625 71.73333Q294.40625 71.73333 295.3125 72.60833Q296.23438 73.467705 296.23438 74.717705Q296.23438 75.51458 295.8125 76.10833Q295.39062 76.70208 294.54688 77.01458Q295.59375 77.35833 296.14062 78.123955Q296.70312 78.88958 296.70312 79.95208Q296.70312 81.42083 295.65625 82.436455Q294.625 83.436455 292.92188 83.436455Q291.23438 83.436455 290.1875 82.436455Q289.15625 81.42083 289.15625 79.92083Q289.15625 78.79583 289.71875 78.04583Q290.28125 77.29583 291.32812 77.01458ZM291.04688 74.63958Q291.04688 75.45208 291.5625 75.967705Q292.09375 76.48333 292.9375 76.48333Q293.75 76.48333 294.26562 75.967705Q294.78125 75.45208 294.78125 74.717705Q294.78125 73.936455 294.25 73.42083Q293.71875 72.88958 292.92188 72.88958Q292.10938 72.88958 291.57812 73.405205Q291.04688 73.92083 291.04688 74.63958ZM290.59375 79.92083Q290.59375 80.530205 290.875 81.092705Q291.17188 81.655205 291.73438 81.967705Q292.29688 82.26458 292.9375 82.26458Q293.95312 82.26458 294.60938 81.623955Q295.26562 80.967705 295.26562 79.967705Q295.26562 78.95208 294.57812 78.29583Q293.90625 77.623955 292.89062 77.623955Q291.90625 77.623955 291.25 78.280205Q290.59375 78.936455 290.59375 79.92083ZM298.17188 77.57708Q298.17188 75.54583 298.57812 74.311455Q299.0 73.07708 299.82812 72.405205Q300.65625 71.73333 301.90625 71.73333Q302.82812 71.73333 303.51562 72.10833Q304.21875 72.467705 304.67188 73.17083Q305.125 73.873955 305.375 74.873955Q305.64062 75.873955 305.64062 77.57708Q305.64062 79.592705 305.21875 80.842705Q304.8125 82.07708 303.98438 82.76458Q303.15625 83.436455 301.90625 83.436455Q300.25 83.436455 299.29688 82.23333Q298.17188 80.811455 298.17188 77.57708ZM299.60938 77.57708Q299.60938 80.405205 300.26562 81.342705Q300.9375 82.26458 301.90625 82.26458Q302.875 82.26458 303.53125 81.32708Q304.1875 80.38958 304.1875 77.57708Q304.1875 74.748955 303.53125 73.82708Q302.875 72.88958 301.89062 72.88958Q300.92188 72.88958 300.34375 73.717705Q299.60938 74.76458 299.60938 77.57708ZM307.95312 83.23333L307.95312 81.623955L309.5625 81.623955L309.5625 83.23333L307.95312 83.23333ZM318.46875 74.57708L317.0625 74.686455Q316.875 73.85833 316.53125 73.48333Q315.96875 72.88958 315.125 72.88958Q314.45312 72.88958 313.95312 73.26458Q313.28125 73.748955 312.89062 74.686455Q312.51562 75.60833 312.5 77.32708Q313.01562 76.54583 313.75 76.17083Q314.48438 75.79583 315.28125 75.79583Q316.6875 75.79583 317.67188 76.842705Q318.67188 77.873955 318.67188 79.51458Q318.67188 80.592705 318.20312 81.51458Q317.73438 82.436455 316.92188 82.936455Q316.10938 83.436455 315.07812 83.436455Q313.32812 83.436455 312.21875 82.13958Q311.10938 80.842705 311.10938 77.873955Q311.10938 74.54583 312.32812 73.04583Q313.40625 71.73333 315.21875 71.73333Q316.5625 71.73333 317.42188 72.498955Q318.29688 73.248955 318.46875 74.57708ZM312.71875 79.51458Q312.71875 80.248955 313.03125 80.92083Q313.34375 81.57708 313.89062 81.92083Q314.45312 82.26458 315.0625 82.26458Q315.95312 82.26458 316.59375 81.54583Q317.23438 80.82708 317.23438 79.592705Q317.23438 78.405205 316.59375 77.73333Q315.96875 77.04583 315.0 77.04583Q314.04688 77.04583 313.375 77.73333Q312.71875 78.405205 312.71875 79.51458Z" fill-rule="nonzero"/><path stroke="#43a047" stroke-width="3.0" stroke-linejoin="round" stroke-linecap="round" d="M429.67188 214.00546L429.67188 211.25546L424.70312 211.25546L424.70312 209.97421L429.9375 202.55234L431.07812 202.55234L431.07812 209.97421L432.625 209.97421L432.625 211.25546L431.07812 211.25546L431.07812 214.00546L429.67188 214.00546ZM429.67188 209.97421L429.67188 204.80234L426.09375 209.97421L429.67188 209.97421ZM438.67188 214.00546L438.67188 211.25546L433.70312 211.25546L433.70312 209.97421L438.9375 202.55234L440.07812 202.55234L440.07812 209.97421L441.625 209.97421L441.625 211.25546L440.07812 211.25546L440.07812 214.00546L438.67188 214.00546ZM438.67188 209.97421L438.67188 204.80234L435.09375 209.97421L438.67188 209.97421ZM443.95312 214.00546L443.95312 212.39609L445.5625 212.39609L445.5625 214.00546L443.95312 214.00546ZM451.67188 214.00546L451.67188 211.25546L446.70312 211.25546L446.70312 209.97421L451.9375 202.55234L453.07812 202.55234L453.07812 209.97421L454.625 209.97421L454.625 211.25546L453.07812 211.25546L453.07812 214.00546L451.67188 214.00546ZM451.67188 209.97421L451.67188 204.80234L448.09375 209.97421L451.67188 209.97421Z" fill-rule="nonzero"/><path fill="#ffffff" d="M429.67188 214.00546L429.67188 211.25546L424.70312 211.25546L424.70312 209.97421L429.9375 202.55234L431.07812 202.55234L431.07812 209.97421L432.625 209.97421L432.625 211.25546L431.07812 211.25546L431.07812 214.00546L429.67188 214.00546ZM429.67188 209.97421L429.67188 204.80234L426.09375 209.97421L429.67188 209.97421ZM438.67188 214.00546L438.67188 211.25546L433.70312 211.25546L433.70312 209.97421L438.9375 202.55234L440.07812 202.55234L440.07812 209.97421L441.625 209.97421L441.625 211.25546L440.07812 211.25546L440.07812 214.00546L438.67188 214.00546ZM438.67188 209.97421L438.67188 204.80234L435.09375 209.97421L438.67188 209.97421ZM443.95312 214.00546L443.95312 212.39609L445.5625 212.39609L445.5625 214.00546L443.95312 214.00546ZM451.67188 214.00546L451.67188 211.25546L446.70312 211.25546L446.70312 209.97421L451.9375 202.55234L453.07812 202.55234L453.07812 209.97421L454.625 209.97421L454.625 211.25546L453.07812 211.25546L453.07812 214.00546L451.67188 214.00546ZM451.67188 209.97421L451.67188 204.80234L448.09375 209.97421L451.67188 209.97421Z" fill-rule="nonzero"/><path stroke="#43a047" stroke-width="3.0" stroke-linejoin="round" stroke-linecap="round" d="M567.5625 294.6496L567.5625 296.00897L559.9844 296.00897Q559.96875 295.49335 560.15625 295.0246Q560.4375 294.25897 561.0781 293.50897Q561.71875 292.75897 562.9219 291.7746Q564.78125 290.24335 565.4375 289.35272Q566.09375 288.44647 566.09375 287.6496Q566.09375 286.82147 565.5 286.24335Q564.90625 285.66522 563.9375 285.66522Q562.9219 285.66522 562.3125 286.2746Q561.7031 286.88397 561.7031 287.9621L560.25 287.82147Q560.40625 286.19647 561.375 285.35272Q562.34375 284.50897 563.96875 284.50897Q565.625 284.50897 566.5781 285.43085Q567.5469 286.3371 567.5469 287.68085Q567.5469 288.36835 567.2656 289.04022Q566.9844 289.69647 566.3281 290.43085Q565.6719 291.16522 564.15625 292.44647Q562.8906 293.50897 562.53125 293.8996Q562.1719 294.2746 561.9375 294.6496L567.5625 294.6496ZM574.46875 296.00897L573.0625 296.00897L573.0625 287.04022Q572.5469 287.5246 571.71875 288.00897Q570.90625 288.49335 570.25 288.74335L570.25 287.38397Q571.4219 286.82147 572.2969 286.04022Q573.1875 285.24335 573.5625 284.50897L574.46875 284.50897L574.46875 296.00897ZM578.9531 296.00897L578.9531 294.3996L580.5625 294.3996L580.5625 296.00897L578.9531 296.00897ZM582.2656 286.05585L582.2656 284.69647L589.6719 284.69647L589.6719 285.79022Q588.5781 286.9621 587.5 288.8996Q586.4375 290.82147 585.84375 292.85272Q585.4219 294.29022 585.3125 296.00897L583.8594 296.00897Q583.8906 294.6496 584.3906 292.74335Q584.90625 290.82147 585.84375 289.05585Q586.7969 287.2746 587.875 286.05585L582.2656 286.05585Z" fill-rule="nonzero"/><path fill="#ffffff" d="M567.5625 294.6496L567.5625 296.00897L559.9844 296.00897Q559.96875 295.49335 560.15625 295.0246Q560.4375 294.25897 561.0781 293.50897Q561.71875 292.75897 562.9219 291.7746Q564.78125 290.24335 565.4375 289.35272Q566.09375 288.44647 566.09375 287.6496Q566.09375 286.82147 565.5 286.24335Q564.90625 285.66522 563.9375 285.66522Q562.9219 285.66522 562.3125 286.2746Q561.7031 286.88397 561.7031 287.9621L560.25 287.82147Q560.40625 286.19647 561.375 285.35272Q562.34375 284.50897 563.96875 284.50897Q565.625 284.50897 566.5781 285.43085Q567.5469 286.3371 567.5469 287.68085Q567.5469 288.36835 567.2656 289.04022Q566.9844 289.69647 566.3281 290.43085Q565.6719 291.16522 564.15625 292.44647Q562.8906 293.50897 562.53125 293.8996Q562.1719 294.2746 561.9375 294.6496L567.5625 294.6496ZM574.46875 296.00897L573.0625 296.00897L573.0625 287.04022Q572.5469 287.5246 571.71875 288.00897Q570.90625 288.49335 570.25 288.74335L570.25 287.38397Q571.4219 286.82147 572.2969 286.04022Q573.1875 285.24335 573.5625 284.50897L574.46875 284.50897L574.46875 296.00897ZM578.9531 296.00897L578.9531 294.3996L580.5625 294.3996L580.5625 296.00897L578.9531 296.00897ZM582.2656 286.05585L582.2656 284.69647L589.6719 284.69647L589.6719 285.79022Q588.5781 286.9621 587.5 288.8996Q586.4375 290.82147 585.84375 292.85272Q585.4219 294.29022 585.3125 296.00897L583.8594 296.00897Q583.8906 294.6496 584.3906 292.74335Q584.90625 290.82147 585.84375 289.05585Q586.7969 287.2746 587.875 286.05585L582.2656 286.05585Z" fill-rule="nonzero"/><path stroke="#43a047" stroke-width="3.0" stroke-linejoin="round" stroke-linecap="round" d="M700.6719 215.45045L700.6719 212.70045L695.7031 212.70045L695.7031 211.4192L700.9375 203.99733L702.0781 203.99733L702.0781 211.4192L703.625 211.4192L703.625 212.70045L702.0781 212.70045L702.0781 215.45045L700.6719 215.45045ZM700.6719 211.4192L700.6719 206.24733L697.09375 211.4192L700.6719 211.4192ZM709.6719 215.45045L709.6719 212.70045L704.7031 212.70045L704.7031 211.4192L709.9375 203.99733L711.0781 203.99733L711.0781 211.4192L712.625 211.4192L712.625 212.70045L711.0781 212.70045L711.0781 215.45045L709.6719 215.45045ZM709.6719 211.4192L709.6719 206.24733L706.09375 211.4192L709.6719 211.4192ZM714.9531 215.45045L714.9531 213.84108L716.5625 213.84108L716.5625 215.45045L714.9531 215.45045ZM718.1719 209.7942Q718.1719 207.76295 718.5781 206.52858Q719.0 205.2942 719.8281 204.62233Q720.65625 203.95045 721.90625 203.95045Q722.8281 203.95045 723.5156 204.32545Q724.21875 204.68483 724.6719 205.38795Q725.125 206.09108 725.375 207.09108Q725.6406 208.09108 725.6406 209.7942Q725.6406 211.80983 725.21875 213.05983Q724.8125 214.2942 723.9844 214.9817Q723.15625 215.65358 721.90625 215.65358Q720.25 215.65358 719.2969 214.45045Q718.1719 213.02858 718.1719 209.7942ZM719.6094 209.7942Q719.6094 212.62233 720.2656 213.55983Q720.9375 214.4817 721.90625 214.4817Q722.875 214.4817 723.53125 213.5442Q724.1875 212.6067 724.1875 209.7942Q724.1875 206.96608 723.53125 206.0442Q722.875 205.1067 721.8906 205.1067Q720.9219 205.1067 720.34375 205.93483Q719.6094 206.9817 719.6094 209.7942Z" fill-rule="nonzero"/><path fill="#ffffff" d="M700.6719 215.45045L700.6719 212.70045L695.7031 212.70045L695.7031 211.4192L700.9375 203.99733L702.0781 203.99733L702.0781 211.4192L703.625 211.4192L703.625 212.70045L702.0781 212.70045L702.0781 215.45045L700.6719 215.45045ZM700.6719 211.4192L700.6719 206.24733L697.09375 211.4192L700.6719 211.4192ZM709.6719 215.45045L709.6719 212.70045L704.7031 212.70045L704.7031 211.4192L709.9375 203.99733L711.0781 203.99733L711.0781 211.4192L712.625 211.4192L712.625 212.70045L711.0781 212.70045L711.0781 215.45045L709.6719 215.45045ZM709.6719 211.4192L709.6719 206.24733L706.09375 211.4192L709.6719 211.4192ZM714.9531 215.45045L714.9531 213.84108L716.5625 213.84108L716.5625 215.45045L714.9531 215.45045ZM718.1719 209.7942Q718.1719 207.76295 718.5781 206.52858Q719.0 205.2942 719.8281 204.62233Q720.65625 203.95045 721.90625 203.95045Q722.8281 203.95045 723.5156 204.32545Q724.21875 204.68483 724.6719 205.38795Q725.125 206.09108 725.375 207.09108Q725.6406 208.09108 725.6406 209.7942Q725.6406 211.80983 725.21875 213.05983Q724.8125 214.2942 723.9844 214.9817Q723.15625 215.65358 721.90625 215.65358Q720.25 215.65358 719.2969 214.45045Q718.1719 213.02858 718.1719 209.7942ZM719.6094 209.7942Q719.6094 212.62233 720.2656 213.55983Q720.9375 214.4817 721.90625 214.4817Q722.875 214.4817 723.53125 213.5442Q724.1875 212.6067 724.1875 209.7942Q724.1875 206.96608 723.53125 206.0442Q722.875 205.1067 721.8906 205.1067Q720.9219 205.1067 720.34375 205.93483Q719.6094 206.9817 719.6094 209.7942Z" fill-rule="nonzero"/><path fill="#24292e" d="M38.671875 352.84375Q38.671875 350.8125 39.078125 349.57812Q39.5 348.34375 40.328125 347.67188Q41.15625 347.0 42.40625 347.0Q43.328125 347.0 44.015625 347.375Q44.71875 347.73438 45.171875 348.4375Q45.625 349.14062 45.875 350.14062Q46.140625 351.14062 46.140625 352.84375Q46.140625 354.85938 45.71875 356.10938Q45.3125 357.34375 44.484375 358.03125Q43.65625 358.70312 42.40625 358.70312Q40.75 358.70312 39.796875 357.5Q38.671875 356.07812 38.671875 352.84375ZM40.109375 352.84375Q40.109375 355.67188 40.765625 356.60938Q41.4375 357.53125 42.40625 357.53125Q43.375 357.53125 44.03125 356.59375Q44.6875 355.65625 44.6875 352.84375Q44.6875 350.01562 44.03125 349.09375Q43.375 348.15625 42.390625 348.15625Q41.421875 348.15625 40.84375 348.98438Q40.109375 350.03125 40.109375 352.84375Z" fill-rule="nonzero"/><path fill="#24292e" d="M37.0625 284.89084L37.0625 286.2502L29.484375 286.2502Q29.46875 285.7346 29.65625 285.26584Q29.9375 284.5002 30.578125 283.7502Q31.21875 283.0002 32.421875 282.01584Q34.28125 280.4846 34.9375 279.59396Q35.59375 278.6877 35.59375 277.89084Q35.59375 277.0627 35.0 276.4846Q34.40625 275.90646 33.4375 275.90646Q32.421875 275.90646 31.8125 276.51584Q31.203125 277.1252 31.203125 278.20334L29.75 278.0627Q29.90625 276.4377 30.875 275.59396Q31.84375 274.7502 33.46875 274.7502Q35.125 274.7502 36.078125 275.6721Q37.046875 276.57834 37.046875 277.9221Q37.046875 278.6096 36.765625 279.28146Q36.484375 279.9377 35.828125 280.6721Q35.171875 281.40646 33.65625 282.6877Q32.390625 283.7502 32.03125 284.14084Q31.671875 284.51584 31.4375 284.89084L37.0625 284.89084ZM38.671875 280.59396Q38.671875 278.5627 39.078125 277.32834Q39.5 276.09396 40.328125 275.4221Q41.15625 274.7502 42.40625 274.7502Q43.328125 274.7502 44.015625 275.1252Q44.71875 275.4846 45.171875 276.1877Q45.625 276.89084 45.875 277.89084Q46.140625 278.89084 46.140625 280.59396Q46.140625 282.6096 45.71875 283.8596Q45.3125 285.09396 44.484375 285.78146Q43.65625 286.45334 42.40625 286.45334Q40.75 286.45334 39.796875 285.2502Q38.671875 283.82834 38.671875 280.59396ZM40.109375 280.59396Q40.109375 283.4221 40.765625 284.3596Q41.4375 285.28146 42.40625 285.28146Q43.375 285.28146 44.03125 284.34396Q44.6875 283.40646 44.6875 280.59396Q44.6875 277.76584 44.03125 276.84396Q43.375 275.90646 42.390625 275.90646Q41.421875 275.90646 40.84375 276.7346Q40.109375 277.78146 40.109375 280.59396Z" fill-rule="nonzero"/><path fill="#24292e" d="M34.171875 214.00041L34.171875 211.25041L29.203125 211.25041L29.203125 209.96916L34.4375 202.54729L35.578125 202.54729L35.578125 209.96916L37.125 209.96916L37.125 211.25041L35.578125 211.25041L35.578125 214.00041L34.171875 214.00041ZM34.171875 209.96916L34.171875 204.79729L30.59375 209.96916L34.171875 209.96916ZM38.671875 208.34416Q38.671875 206.31291 39.078125 205.07854Q39.5 203.84416 40.328125 203.17229Q41.15625 202.50041 42.40625 202.50041Q43.328125 202.50041 44.015625 202.87541Q44.71875 203.23479 45.171875 203.93791Q45.625 204.64104 45.875 205.64104Q46.140625 206.64104 46.140625 208.34416Q46.140625 210.35979 45.71875 211.60979Q45.3125 212.84416 44.484375 213.53166Q43.65625 214.20354 42.40625 214.20354Q40.75 214.20354 39.796875 213.00041Q38.671875 211.57854 38.671875 208.34416ZM40.109375 208.34416Q40.109375 211.17229 40.765625 212.10979Q41.4375 213.03166 42.40625 213.03166Q43.375 213.03166 44.03125 212.09416Q44.6875 211.15666 44.6875 208.34416Q44.6875 205.51604 44.03125 204.59416Q43.375 203.65666 42.390625 203.65666Q41.421875 203.65666 40.84375 204.48479Q40.109375 205.53166 40.109375 208.34416Z" fill-rule="nonzero"/><path fill="#24292e" d="M36.96875 133.09438L35.5625 133.20375Q35.375 132.37563 35.03125 132.00063Q34.46875 131.40688 33.625 131.40688Q32.953125 131.40688 32.453125 131.78188Q31.78125 132.26625 31.390625 133.20375Q31.015625 134.12563 31.0 135.84438Q31.515625 135.06313 32.25 134.68813Q32.984375 134.31313 33.78125 134.31313Q35.1875 134.31313 36.171875 135.36Q37.171875 136.39125 37.171875 138.03188Q37.171875 139.11 36.703125 140.03188Q36.234375 140.95375 35.421875 141.45375Q34.609375 141.95375 33.578125 141.95375Q31.828125 141.95375 30.71875 140.65688Q29.609375 139.36 29.609375 136.39125Q29.609375 133.06313 30.828125 131.56313Q31.90625 130.25063 33.71875 130.25063Q35.0625 130.25063 35.921875 131.01625Q36.796875 131.76625 36.96875 133.09438ZM31.21875 138.03188Q31.21875 138.76625 31.53125 139.43813Q31.84375 140.09438 32.390625 140.43813Q32.953125 140.78188 33.5625 140.78188Q34.453125 140.78188 35.09375 140.06313Q35.734375 139.34438 35.734375 138.11Q35.734375 136.9225 35.09375 136.25063Q34.46875 135.56313 33.5 135.56313Q32.546875 135.56313 31.875 136.25063Q31.21875 136.9225 31.21875 138.03188ZM38.671875 136.09438Q38.671875 134.06313 39.078125 132.82875Q39.5 131.59438 40.328125 130.9225Q41.15625 130.25063 42.40625 130.25063Q43.328125 130.25063 44.015625 130.62563Q44.71875 130.985 45.171875 131.68813Q45.625 132.39125 45.875 133.39125Q46.140625 134.39125 46.140625 136.09438Q46.140625 138.11 45.71875 139.36Q45.3125 140.59438 44.484375 141.28188Q43.65625 141.95375 42.40625 141.95375Q40.75 141.95375 39.796875 140.75063Q38.671875 139.32875 38.671875 136.09438ZM40.109375 136.09438Q40.109375 138.9225 40.765625 139.86Q41.4375 140.78188 42.40625 140.78188Q43.375 140.78188 44.03125 139.84438Q44.6875 138.90688 44.6875 136.09438Q44.6875 133.26625 44.03125 132.34438Q43.375 131.40688 42.390625 131.40688Q41.421875 131.40688 40.84375 132.235Q40.109375 133.28188 40.109375 136.09438Z" fill-rule="nonzero"/><path fill="#24292e" d="M31.828125 63.282074Q30.953125 62.969574 30.53125 62.375824Q30.109375 61.782074 30.109375 60.95395Q30.109375 59.70395 31.0 58.8602Q31.90625 58.000824 33.40625 58.000824Q34.90625 58.000824 35.8125 58.875824Q36.734375 59.7352 36.734375 60.9852Q36.734375 61.782074 36.3125 62.375824Q35.890625 62.969574 35.046875 63.282074Q36.09375 63.625824 36.640625 64.39145Q37.203125 65.157074 37.203125 66.219574Q37.203125 67.688324 36.15625 68.70395Q35.125 69.70395 33.421875 69.70395Q31.734375 69.70395 30.6875 68.70395Q29.65625 67.688324 29.65625 66.188324Q29.65625 65.063324 30.21875 64.313324Q30.78125 63.563324 31.828125 63.282074ZM31.546875 60.907074Q31.546875 61.719574 32.0625 62.2352Q32.59375 62.750824 33.4375 62.750824Q34.25 62.750824 34.765625 62.2352Q35.28125 61.719574 35.28125 60.9852Q35.28125 60.20395 34.75 59.688324Q34.21875 59.157074 33.421875 59.157074Q32.609375 59.157074 32.078125 59.6727Q31.546875 60.188324 31.546875 60.907074ZM31.09375 66.188324Q31.09375 66.7977 31.375 67.3602Q31.671875 67.9227 32.234375 68.2352Q32.796875 68.532074 33.4375 68.532074Q34.453125 68.532074 35.109375 67.89145Q35.765625 67.2352 35.765625 66.2352Q35.765625 65.219574 35.078125 64.563324Q34.40625 63.89145 33.390625 63.89145Q32.40625 63.89145 31.75 64.5477Q31.09375 65.20395 31.09375 66.188324ZM38.671875 63.844574Q38.671875 61.813324 39.078125 60.57895Q39.5 59.344574 40.328125 58.6727Q41.15625 58.000824 42.40625 58.000824Q43.328125 58.000824 44.015625 58.375824Q44.71875 58.7352 45.171875 59.438324Q45.625 60.14145 45.875 61.14145Q46.140625 62.14145 46.140625 63.844574Q46.140625 65.8602 45.71875 67.1102Q45.3125 68.344574 44.484375 69.032074Q43.65625 69.70395 42.40625 69.70395Q40.75 69.70395 39.796875 68.500824Q38.671875 67.07895 38.671875 63.844574ZM40.109375 63.844574Q40.109375 66.6727 40.765625 67.6102Q41.4375 68.532074 42.40625 68.532074Q43.375 68.532074 44.03125 67.594574Q44.6875 66.657074 44.6875 63.844574Q44.6875 61.01645 44.03125 60.094574Q43.375 59.157074 42.390625 59.157074Q41.421875 59.157074 40.84375 59.9852Q40.109375 61.032074 40.109375 63.844574Z" fill-rule="nonzero"/><path fill="#24292e" d="M125.87821 371.98438L127.39384 372.35938Q126.92509 374.23438 125.67509 375.21875Q124.44071 376.20312 122.65946 376.20312Q120.80009 376.20312 119.64384 375.45312Q118.48759 374.6875 117.87821 373.26562Q117.26884 371.82812 117.26884 370.1875Q117.26884 368.39062 117.95634 367.0625Q118.64384 365.73438 119.89384 365.04688Q121.15946 364.34375 122.67509 364.34375Q124.39384 364.34375 125.56571 365.21875Q126.73759 366.09375 127.20634 367.6875L125.70634 368.03125Q125.31571 366.78125 124.55009 366.21875Q123.80009 365.64062 122.64384 365.64062Q121.33134 365.64062 120.44071 366.28125Q119.55009 366.90625 119.19071 367.98438Q118.83134 369.04688 118.83134 370.17188Q118.83134 371.64062 119.25321 372.73438Q119.69071 373.8125 120.58134 374.35938Q121.48759 374.89062 122.53446 374.89062Q123.80009 374.89062 124.67509 374.15625Q125.56571 373.42188 125.87821 371.98438ZM129.0032 371.84375Q129.0032 369.54688 130.28445 368.4375Q131.36258 367.51562 132.89383 367.51562Q134.61258 367.51562 135.6907 368.64062Q136.78445 369.75 136.78445 371.73438Q136.78445 373.32812 136.30008 374.25Q135.8157 375.17188 134.89383 375.6875Q133.98758 376.1875 132.89383 376.1875Q131.15945 376.1875 130.08133 375.07812Q129.0032 373.95312 129.0032 371.84375ZM130.45633 371.84375Q130.45633 373.4375 131.14383 374.23438Q131.84695 375.03125 132.89383 375.03125Q133.9407 375.03125 134.6282 374.23438Q135.33133 373.4375 135.33133 371.79688Q135.33133 370.26562 134.6282 369.46875Q133.9407 368.67188 132.89383 368.67188Q131.84695 368.67188 131.14383 369.46875Q130.45633 370.25 130.45633 371.84375ZM138.53445 376.0L138.53445 367.70312L139.80008 367.70312L139.80008 368.875Q140.70633 367.51562 142.4407 367.51562Q143.1907 367.51562 143.8157 367.78125Q144.4407 368.04688 144.7532 368.48438Q145.0657 368.92188 145.1907 369.53125Q145.26883 369.92188 145.26883 370.89062L145.26883 376.0L143.86258 376.0L143.86258 370.95312Q143.86258 370.09375 143.6907 369.67188Q143.53445 369.23438 143.11258 368.98438Q142.70633 368.73438 142.14383 368.73438Q141.23758 368.73438 140.58133 369.3125Q139.9407 369.875 139.9407 371.46875L139.9407 376.0L138.53445 376.0ZM147.86258 376.0L147.86258 368.79688L146.6282 368.79688L146.6282 367.70312L147.86258 367.70312L147.86258 366.8125Q147.86258 365.98438 148.01883 365.57812Q148.22195 365.03125 148.72195 364.6875Q149.23758 364.34375 150.15945 364.34375Q150.7532 364.34375 151.47195 364.48438L151.26883 365.71875Q150.83133 365.64062 150.4407 365.64062Q149.80008 365.64062 149.53445 365.92188Q149.26883 366.1875 149.26883 366.9375L149.26883 367.70312L150.8782 367.70312L150.8782 368.79688L149.26883 368.79688L149.26883 376.0L147.86258 376.0ZM151.53445 366.15625L151.53445 364.54688L152.9407 364.54688L152.9407 366.15625L151.53445 366.15625ZM151.53445 376.0L151.53445 367.70312L152.9407 367.70312L152.9407 376.0L151.53445 376.0ZM155.26883 376.6875L156.64383 376.89062Q156.72195 377.53125 157.11258 377.8125Q157.64383 378.20312 158.55008 378.20312Q159.51883 378.20312 160.05008 377.8125Q160.58133 377.42188 160.76883 376.71875Q160.8782 376.29688 160.8782 374.90625Q159.95633 376.0 158.58133 376.0Q156.86258 376.0 155.92508 374.76562Q154.98758 373.53125 154.98758 371.79688Q154.98758 370.60938 155.40945 369.60938Q155.84695 368.60938 156.65945 368.0625Q157.48758 367.51562 158.58133 367.51562Q160.05008 367.51562 161.0032 368.70312L161.0032 367.70312L162.30008 367.70312L162.30008 374.875Q162.30008 376.8125 161.90945 377.625Q161.51883 378.4375 160.65945 378.90625Q159.80008 379.375 158.55008 379.375Q157.0657 379.375 156.14383 378.70312Q155.23758 378.03125 155.26883 376.6875ZM156.4407 371.70312Q156.4407 373.32812 157.08133 374.07812Q157.73758 374.82812 158.70633 374.82812Q159.67508 374.82812 160.33133 374.09375Q160.98758 373.34375 160.98758 371.75Q160.98758 370.21875 160.3157 369.45312Q159.64383 368.67188 158.6907 368.67188Q157.7532 368.67188 157.09695 369.4375Q156.4407 370.20312 156.4407 371.70312ZM173.4407 376.0L172.03445 376.0L172.03445 367.03125Q171.51883 367.51562 170.6907 368.0Q169.8782 368.48438 169.22195 368.73438L169.22195 367.375Q170.39383 366.8125 171.26883 366.03125Q172.15945 365.23438 172.53445 364.5L173.4407 364.5L173.4407 376.0Z" fill-rule="nonzero"/><path fill="#24292e" d="M261.3922 371.98438L262.90784 372.35938Q262.4391 374.23438 261.1891 375.21875Q259.9547 376.20312 258.17346 376.20312Q256.3141 376.20312 255.15785 375.45312Q254.0016 374.6875 253.39223 373.26562Q252.78285 371.82812 252.78285 370.1875Q252.78285 368.39062 253.47035 367.0625Q254.15785 365.73438 255.40785 365.04688Q256.67346 364.34375 258.1891 364.34375Q259.90784 364.34375 261.0797 365.21875Q262.2516 366.09375 262.72034 367.6875L261.22034 368.03125Q260.8297 366.78125 260.0641 366.21875Q259.3141 365.64062 258.15784 365.64062Q256.84534 365.64062 255.95473 366.28125Q255.0641 366.90625 254.70473 367.98438Q254.34535 369.04688 254.34535 370.17188Q254.34535 371.64062 254.76723 372.73438Q255.20473 373.8125 256.09534 374.35938Q257.0016 374.89062 258.04846 374.89062Q259.3141 374.89062 260.1891 374.15625Q261.0797 373.42188 261.3922 371.98438ZM264.5172 371.84375Q264.5172 369.54688 265.79846 368.4375Q266.8766 367.51562 268.40784 367.51562Q270.1266 367.51562 271.2047 368.64062Q272.29846 369.75 272.29846 371.73438Q272.29846 373.32812 271.8141 374.25Q271.3297 375.17188 270.40784 375.6875Q269.5016 376.1875 268.40784 376.1875Q266.67346 376.1875 265.59534 375.07812Q264.5172 373.95312 264.5172 371.84375ZM265.97034 371.84375Q265.97034 373.4375 266.65784 374.23438Q267.36096 375.03125 268.40784 375.03125Q269.4547 375.03125 270.1422 374.23438Q270.84534 373.4375 270.84534 371.79688Q270.84534 370.26562 270.1422 369.46875Q269.4547 368.67188 268.40784 368.67188Q267.36096 368.67188 266.65784 369.46875Q265.97034 370.25 265.97034 371.84375ZM274.04846 376.0L274.04846 367.70312L275.3141 367.70312L275.3141 368.875Q276.22034 367.51562 277.9547 367.51562Q278.7047 367.51562 279.3297 367.78125Q279.9547 368.04688 280.2672 368.48438Q280.5797 368.92188 280.7047 369.53125Q280.78284 369.92188 280.78284 370.89062L280.78284 376.0L279.3766 376.0L279.3766 370.95312Q279.3766 370.09375 279.2047 369.67188Q279.04846 369.23438 278.6266 368.98438Q278.22034 368.73438 277.65784 368.73438Q276.7516 368.73438 276.09534 369.3125Q275.4547 369.875 275.4547 371.46875L275.4547 376.0L274.04846 376.0ZM283.3766 376.0L283.3766 368.79688L282.1422 368.79688L282.1422 367.70312L283.3766 367.70312L283.3766 366.8125Q283.3766 365.98438 283.53284 365.57812Q283.73596 365.03125 284.23596 364.6875Q284.7516 364.34375 285.67346 364.34375Q286.2672 364.34375 286.98596 364.48438L286.78284 365.71875Q286.34534 365.64062 285.9547 365.64062Q285.3141 365.64062 285.04846 365.92188Q284.78284 366.1875 284.78284 366.9375L284.78284 367.70312L286.3922 367.70312L286.3922 368.79688L284.78284 368.79688L284.78284 376.0L283.3766 376.0ZM287.04846 366.15625L287.04846 364.54688L288.4547 364.54688L288.4547 366.15625L287.04846 366.15625ZM287.04846 376.0L287.04846 367.70312L288.4547 367.70312L288.4547 376.0L287.04846 376.0ZM290.78284 376.6875L292.15784 376.89062Q292.23596 377.53125 292.6266 377.8125Q293.15784 378.20312 294.0641 378.20312Q295.03284 378.20312 295.5641 377.8125Q296.09534 377.42188 296.28284 376.71875Q296.3922 376.29688 296.3922 374.90625Q295.47034 376.0 294.09534 376.0Q292.3766 376.0 291.4391 374.76562Q290.5016 373.53125 290.5016 371.79688Q290.5016 370.60938 290.92346 369.60938Q291.36096 368.60938 292.17346 368.0625Q293.0016 367.51562 294.09534 367.51562Q295.5641 367.51562 296.5172 368.70312L296.5172 367.70312L297.8141 367.70312L297.8141 374.875Q297.8141 376.8125 297.42346 377.625Q297.03284 378.4375 296.17346 378.90625Q295.3141 379.375 294.0641 379.375Q292.5797 379.375 291.65784 378.70312Q290.7516 378.03125 290.78284 376.6875ZM291.9547 371.70312Q291.9547 373.32812 292.59534 374.07812Q293.2516 374.82812 294.22034 374.82812Q295.1891 374.82812 295.84534 374.09375Q296.5016 373.34375 296.5016 371.75Q296.5016 370.21875 295.8297 369.45312Q295.15784 368.67188 294.2047 368.67188Q293.2672 368.67188 292.61096 369.4375Q291.9547 370.20312 291.9547 371.70312ZM311.04846 374.64062L311.04846 376.0L303.47034 376.0Q303.4547 375.48438 303.6422 375.01562Q303.92346 374.25 304.5641 373.5Q305.2047 372.75 306.40784 371.76562Q308.2672 370.23438 308.92346 369.34375Q309.5797 368.4375 309.5797 367.64062Q309.5797 366.8125 308.98596 366.23438Q308.3922 365.65625 307.42346 365.65625Q306.40784 365.65625 305.79846 366.26562Q305.1891 366.875 305.1891 367.95312L303.73596 367.8125Q303.8922 366.1875 304.86096 365.34375Q305.8297 364.5 307.4547 364.5Q309.11096 364.5 310.0641 365.42188Q311.03284 366.32812 311.03284 367.67188Q311.03284 368.35938 310.7516 369.03125Q310.47034 369.6875 309.8141 370.42188Q309.15784 371.15625 307.6422 372.4375Q306.3766 373.5 306.0172 373.89062Q305.65784 374.26562 305.42346 374.64062L311.04846 374.64062Z" fill-rule="nonzero"/><path fill="#24292e" d="M396.90625 371.98438L398.42188 372.35938Q397.95312 374.23438 396.70312 375.21875Q395.46875 376.20312 393.6875 376.20312Q391.82812 376.20312 390.67188 375.45312Q389.51562 374.6875 388.90625 373.26562Q388.29688 371.82812 388.29688 370.1875Q388.29688 368.39062 388.98438 367.0625Q389.67188 365.73438 390.92188 365.04688Q392.1875 364.34375 393.70312 364.34375Q395.42188 364.34375 396.59375 365.21875Q397.76562 366.09375 398.23438 367.6875L396.73438 368.03125Q396.34375 366.78125 395.57812 366.21875Q394.82812 365.64062 393.67188 365.64062Q392.35938 365.64062 391.46875 366.28125Q390.57812 366.90625 390.21875 367.98438Q389.85938 369.04688 389.85938 370.17188Q389.85938 371.64062 390.28125 372.73438Q390.71875 373.8125 391.60938 374.35938Q392.51562 374.89062 393.5625 374.89062Q394.82812 374.89062 395.70312 374.15625Q396.59375 373.42188 396.90625 371.98438ZM400.03125 371.84375Q400.03125 369.54688 401.3125 368.4375Q402.39062 367.51562 403.92188 367.51562Q405.64062 367.51562 406.71875 368.64062Q407.8125 369.75 407.8125 371.73438Q407.8125 373.32812 407.32812 374.25Q406.84375 375.17188 405.92188 375.6875Q405.01562 376.1875 403.92188 376.1875Q402.1875 376.1875 401.10938 375.07812Q400.03125 373.95312 400.03125 371.84375ZM401.48438 371.84375Q401.48438 373.4375 402.17188 374.23438Q402.875 375.03125 403.92188 375.03125Q404.96875 375.03125 405.65625 374.23438Q406.35938 373.4375 406.35938 371.79688Q406.35938 370.26562 405.65625 369.46875Q404.96875 368.67188 403.92188 368.67188Q402.875 368.67188 402.17188 369.46875Q401.48438 370.25 401.48438 371.84375ZM409.5625 376.0L409.5625 367.70312L410.82812 367.70312L410.82812 368.875Q411.73438 367.51562 413.46875 367.51562Q414.21875 367.51562 414.84375 367.78125Q415.46875 368.04688 415.78125 368.48438Q416.09375 368.92188 416.21875 369.53125Q416.29688 369.92188 416.29688 370.89062L416.29688 376.0L414.89062 376.0L414.89062 370.95312Q414.89062 370.09375 414.71875 369.67188Q414.5625 369.23438 414.14062 368.98438Q413.73438 368.73438 413.17188 368.73438Q412.26562 368.73438 411.60938 369.3125Q410.96875 369.875 410.96875 371.46875L410.96875 376.0L409.5625 376.0ZM418.89062 376.0L418.89062 368.79688L417.65625 368.79688L417.65625 367.70312L418.89062 367.70312L418.89062 366.8125Q418.89062 365.98438 419.04688 365.57812Q419.25 365.03125 419.75 364.6875Q420.26562 364.34375 421.1875 364.34375Q421.78125 364.34375 422.5 364.48438L422.29688 365.71875Q421.85938 365.64062 421.46875 365.64062Q420.82812 365.64062 420.5625 365.92188Q420.29688 366.1875 420.29688 366.9375L420.29688 367.70312L421.90625 367.70312L421.90625 368.79688L420.29688 368.79688L420.29688 376.0L418.89062 376.0ZM422.5625 366.15625L422.5625 364.54688L423.96875 364.54688L423.96875 366.15625L422.5625 366.15625ZM422.5625 376.0L422.5625 367.70312L423.96875 367.70312L423.96875 376.0L422.5625 376.0ZM426.29688 376.6875L427.67188 376.89062Q427.75 377.53125 428.14062 377.8125Q428.67188 378.20312 429.57812 378.20312Q430.54688 378.20312 431.07812 377.8125Q431.60938 377.42188 431.79688 376.71875Q431.90625 376.29688 431.90625 374.90625Q430.98438 376.0 429.60938 376.0Q427.89062 376.0 426.95312 374.76562Q426.01562 373.53125 426.01562 371.79688Q426.01562 370.60938 426.4375 369.60938Q426.875 368.60938 427.6875 368.0625Q428.51562 367.51562 429.60938 367.51562Q431.07812 367.51562 432.03125 368.70312L432.03125 367.70312L433.32812 367.70312L433.32812 374.875Q433.32812 376.8125 432.9375 377.625Q432.54688 378.4375 431.6875 378.90625Q430.82812 379.375 429.57812 379.375Q428.09375 379.375 427.17188 378.70312Q426.26562 378.03125 426.29688 376.6875ZM427.46875 371.70312Q427.46875 373.32812 428.10938 374.07812Q428.76562 374.82812 429.73438 374.82812Q430.70312 374.82812 431.35938 374.09375Q432.01562 373.34375 432.01562 371.75Q432.01562 370.21875 431.34375 369.45312Q430.67188 368.67188 429.71875 368.67188Q428.78125 368.67188 428.125 369.4375Q427.46875 370.20312 427.46875 371.70312ZM439.17188 372.96875L440.57812 372.78125Q440.82812 373.98438 441.40625 374.51562Q441.98438 375.03125 442.82812 375.03125Q443.8125 375.03125 444.5 374.34375Q445.1875 373.65625 445.1875 372.64062Q445.1875 371.67188 444.54688 371.04688Q443.92188 370.42188 442.9375 370.42188Q442.54688 370.42188 441.95312 370.57812L442.10938 369.34375Q442.25 369.35938 442.32812 369.35938Q443.23438 369.35938 443.95312 368.89062Q444.67188 368.42188 444.67188 367.4375Q444.67188 366.67188 444.14062 366.17188Q443.625 365.65625 442.79688 365.65625Q441.96875 365.65625 441.42188 366.17188Q440.875 366.6875 440.71875 367.71875L439.3125 367.46875Q439.57812 366.04688 440.48438 365.28125Q441.40625 364.5 442.76562 364.5Q443.70312 364.5 444.48438 364.90625Q445.28125 365.29688 445.6875 366.0Q446.10938 366.6875 446.10938 367.46875Q446.10938 368.21875 445.70312 368.82812Q445.3125 369.4375 444.53125 369.79688Q445.54688 370.03125 446.10938 370.76562Q446.67188 371.5 446.67188 372.60938Q446.67188 374.10938 445.57812 375.15625Q444.48438 376.20312 442.8125 376.20312Q441.3125 376.20312 440.3125 375.3125Q439.3125 374.40625 439.17188 372.96875Z" fill-rule="nonzero"/><path fill="#24292e" d="M532.4203 371.98438L533.9359 372.35938Q533.46716 374.23438 532.21716 375.21875Q530.9828 376.20312 529.20154 376.20312Q527.34216 376.20312 526.1859 375.45312Q525.02966 374.6875 524.4203 373.26562Q523.8109 371.82812 523.8109 370.1875Q523.8109 368.39062 524.4984 367.0625Q525.1859 365.73438 526.4359 365.04688Q527.70154 364.34375 529.21716 364.34375Q530.9359 364.34375 532.1078 365.21875Q533.27966 366.09375 533.7484 367.6875L532.2484 368.03125Q531.8578 366.78125 531.09216 366.21875Q530.34216 365.64062 529.1859 365.64062Q527.8734 365.64062 526.9828 366.28125Q526.09216 366.90625 525.7328 367.98438Q525.3734 369.04688 525.3734 370.17188Q525.3734 371.64062 525.7953 372.73438Q526.2328 373.8125 527.1234 374.35938Q528.02966 374.89062 529.07654 374.89062Q530.34216 374.89062 531.21716 374.15625Q532.1078 373.42188 532.4203 371.98438ZM535.5453 371.84375Q535.5453 369.54688 536.82654 368.4375Q537.90466 367.51562 539.4359 367.51562Q541.15466 367.51562 542.2328 368.64062Q543.32654 369.75 543.32654 371.73438Q543.32654 373.32812 542.84216 374.25Q542.3578 375.17188 541.4359 375.6875Q540.52966 376.1875 539.4359 376.1875Q537.70154 376.1875 536.6234 375.07812Q535.5453 373.95312 535.5453 371.84375ZM536.9984 371.84375Q536.9984 373.4375 537.6859 374.23438Q538.38904 375.03125 539.4359 375.03125Q540.4828 375.03125 541.1703 374.23438Q541.8734 373.4375 541.8734 371.79688Q541.8734 370.26562 541.1703 369.46875Q540.4828 368.67188 539.4359 368.67188Q538.38904 368.67188 537.6859 369.46875Q536.9984 370.25 536.9984 371.84375ZM545.07654 376.0L545.07654 367.70312L546.34216 367.70312L546.34216 368.875Q547.2484 367.51562 548.9828 367.51562Q549.7328 367.51562 550.3578 367.78125Q550.9828 368.04688 551.2953 368.48438Q551.6078 368.92188 551.7328 369.53125Q551.8109 369.92188 551.8109 370.89062L551.8109 376.0L550.40466 376.0L550.40466 370.95312Q550.40466 370.09375 550.2328 369.67188Q550.07654 369.23438 549.65466 368.98438Q549.2484 368.73438 548.6859 368.73438Q547.77966 368.73438 547.1234 369.3125Q546.4828 369.875 546.4828 371.46875L546.4828 376.0L545.07654 376.0ZM554.40466 376.0L554.40466 368.79688L553.1703 368.79688L553.1703 367.70312L554.40466 367.70312L554.40466 366.8125Q554.40466 365.98438 554.5609 365.57812Q554.76404 365.03125 555.26404 364.6875Q555.77966 364.34375 556.70154 364.34375Q557.2953 364.34375 558.01404 364.48438L557.8109 365.71875Q557.3734 365.64062 556.9828 365.64062Q556.34216 365.64062 556.07654 365.92188Q555.8109 366.1875 555.8109 366.9375L555.8109 367.70312L557.4203 367.70312L557.4203 368.79688L555.8109 368.79688L555.8109 376.0L554.40466 376.0ZM558.07654 366.15625L558.07654 364.54688L559.4828 364.54688L559.4828 366.15625L558.07654 366.15625ZM558.07654 376.0L558.07654 367.70312L559.4828 367.70312L559.4828 376.0L558.07654 376.0ZM561.8109 376.6875L563.1859 376.89062Q563.26404 377.53125 563.65466 377.8125Q564.1859 378.20312 565.09216 378.20312Q566.0609 378.20312 566.59216 377.8125Q567.1234 377.42188 567.3109 376.71875Q567.4203 376.29688 567.4203 374.90625Q566.4984 376.0 565.1234 376.0Q563.40466 376.0 562.46716 374.76562Q561.52966 373.53125 561.52966 371.79688Q561.52966 370.60938 561.95154 369.60938Q562.38904 368.60938 563.20154 368.0625Q564.02966 367.51562 565.1234 367.51562Q566.59216 367.51562 567.5453 368.70312L567.5453 367.70312L568.84216 367.70312L568.84216 374.875Q568.84216 376.8125 568.45154 377.625Q568.0609 378.4375 567.20154 378.90625Q566.34216 379.375 565.09216 379.375Q563.6078 379.375 562.6859 378.70312Q561.77966 378.03125 561.8109 376.6875ZM562.9828 371.70312Q562.9828 373.32812 563.6234 374.07812Q564.27966 374.82812 565.2484 374.82812Q566.21716 374.82812 566.8734 374.09375Q567.52966 373.34375 567.52966 371.75Q567.52966 370.21875 566.8578 369.45312Q566.1859 368.67188 565.2328 368.67188Q564.2953 368.67188 563.63904 369.4375Q562.9828 370.20312 562.9828 371.70312ZM579.1859 376.0L579.1859 373.25L574.21716 373.25L574.21716 371.96875L579.45154 364.54688L580.59216 364.54688L580.59216 371.96875L582.13904 371.96875L582.13904 373.25L580.59216 373.25L580.59216 376.0L579.1859 376.0ZM579.1859 371.96875L579.1859 366.79688L575.6078 371.96875L579.1859 371.96875Z" fill-rule="nonzero"/><path fill="#24292e" d="M667.93427 371.98438L669.4499 372.35938Q668.98114 374.23438 667.73114 375.21875Q666.49677 376.20312 664.7155 376.20312Q662.85614 376.20312 661.6999 375.45312Q660.54364 374.6875 659.93427 373.26562Q659.3249 371.82812 659.3249 370.1875Q659.3249 368.39062 660.0124 367.0625Q660.6999 365.73438 661.9499 365.04688Q663.2155 364.34375 664.73114 364.34375Q666.4499 364.34375 667.62177 365.21875Q668.79364 366.09375 669.2624 367.6875L667.7624 368.03125Q667.37177 366.78125 666.60614 366.21875Q665.85614 365.64062 664.6999 365.64062Q663.3874 365.64062 662.49677 366.28125Q661.60614 366.90625 661.24677 367.98438Q660.8874 369.04688 660.8874 370.17188Q660.8874 371.64062 661.30927 372.73438Q661.74677 373.8125 662.6374 374.35938Q663.54364 374.89062 664.5905 374.89062Q665.85614 374.89062 666.73114 374.15625Q667.62177 373.42188 667.93427 371.98438ZM671.05927 371.84375Q671.05927 369.54688 672.3405 368.4375Q673.41864 367.51562 674.9499 367.51562Q676.66864 367.51562 677.74677 368.64062Q678.8405 369.75 678.8405 371.73438Q678.8405 373.32812 678.35614 374.25Q677.87177 375.17188 676.9499 375.6875Q676.04364 376.1875 674.9499 376.1875Q673.2155 376.1875 672.1374 375.07812Q671.05927 373.95312 671.05927 371.84375ZM672.5124 371.84375Q672.5124 373.4375 673.1999 374.23438Q673.903 375.03125 674.9499 375.03125Q675.99677 375.03125 676.68427 374.23438Q677.3874 373.4375 677.3874 371.79688Q677.3874 370.26562 676.68427 369.46875Q675.99677 368.67188 674.9499 368.67188Q673.903 368.67188 673.1999 369.46875Q672.5124 370.25 672.5124 371.84375ZM680.5905 376.0L680.5905 367.70312L681.85614 367.70312L681.85614 368.875Q682.7624 367.51562 684.49677 367.51562Q685.24677 367.51562 685.87177 367.78125Q686.49677 368.04688 686.80927 368.48438Q687.12177 368.92188 687.24677 369.53125Q687.3249 369.92188 687.3249 370.89062L687.3249 376.0L685.91864 376.0L685.91864 370.95312Q685.91864 370.09375 685.74677 369.67188Q685.5905 369.23438 685.16864 368.98438Q684.7624 368.73438 684.1999 368.73438Q683.29364 368.73438 682.6374 369.3125Q681.99677 369.875 681.99677 371.46875L681.99677 376.0L680.5905 376.0ZM689.91864 376.0L689.91864 368.79688L688.68427 368.79688L688.68427 367.70312L689.91864 367.70312L689.91864 366.8125Q689.91864 365.98438 690.0749 365.57812Q690.278 365.03125 690.778 364.6875Q691.29364 364.34375 692.2155 364.34375Q692.80927 364.34375 693.528 364.48438L693.3249 365.71875Q692.8874 365.64062 692.49677 365.64062Q691.85614 365.64062 691.5905 365.92188Q691.3249 366.1875 691.3249 366.9375L691.3249 367.70312L692.93427 367.70312L692.93427 368.79688L691.3249 368.79688L691.3249 376.0L689.91864 376.0ZM693.5905 366.15625L693.5905 364.54688L694.99677 364.54688L694.99677 366.15625L693.5905 366.15625ZM693.5905 376.0L693.5905 367.70312L694.99677 367.70312L694.99677 376.0L693.5905 376.0ZM697.3249 376.6875L698.6999 376.89062Q698.778 377.53125 699.16864 377.8125Q699.6999 378.20312 700.60614 378.20312Q701.5749 378.20312 702.10614 377.8125Q702.6374 377.42188 702.8249 376.71875Q702.93427 376.29688 702.93427 374.90625Q702.0124 376.0 700.6374 376.0Q698.91864 376.0 697.98114 374.76562Q697.04364 373.53125 697.04364 371.79688Q697.04364 370.60938 697.4655 369.60938Q697.903 368.60938 698.7155 368.0625Q699.54364 367.51562 700.6374 367.51562Q702.10614 367.51562 703.05927 368.70312L703.05927 367.70312L704.35614 367.70312L704.35614 374.875Q704.35614 376.8125 703.9655 377.625Q703.5749 378.4375 702.7155 378.90625Q701.85614 379.375 700.60614 379.375Q699.12177 379.375 698.1999 378.70312Q697.29364 378.03125 697.3249 376.6875ZM698.49677 371.70312Q698.49677 373.32812 699.1374 374.07812Q699.79364 374.82812 700.7624 374.82812Q701.73114 374.82812 702.3874 374.09375Q703.04364 373.34375 703.04364 371.75Q703.04364 370.21875 702.37177 369.45312Q701.6999 368.67188 700.74677 368.67188Q699.80927 368.67188 699.153 369.4375Q698.49677 370.20312 698.49677 371.70312ZM710.1999 373.0L711.66864 372.875Q711.8405 373.95312 712.43427 374.5Q713.028 375.03125 713.87177 375.03125Q714.8874 375.03125 715.5905 374.26562Q716.29364 373.5 716.29364 372.23438Q716.29364 371.03125 715.62177 370.34375Q714.9499 369.64062 713.85614 369.64062Q713.16864 369.64062 712.62177 369.95312Q712.0749 370.26562 711.7624 370.75L710.4499 370.57812L711.55927 364.70312L717.24677 364.70312L717.24677 366.04688L712.68427 366.04688L712.05927 369.125Q713.0905 368.40625 714.23114 368.40625Q715.73114 368.40625 716.7624 369.45312Q717.79364 370.48438 717.79364 372.10938Q717.79364 373.67188 716.8874 374.79688Q715.778 376.20312 713.87177 376.20312Q712.30927 376.20312 711.3249 375.32812Q710.3405 374.4375 710.1999 373.0Z" fill-rule="nonzero"/><path fill="#00a2ff" d="M311.0 24.5C311.0 23.947716 311.44772 23.5 312.0 23.5L322.0 23.5C322.55228 23.5 323.0 23.947716 323.0 24.5L323.0 34.5C323.0 35.052284 322.55228 35.5 322.0 35.5L312.0 35.5C311.44772 35.5 311.0 35.052284 311.0 34.5Z" fill-rule="nonzero"/><path fill="#24292e" d="M331.07812 35.0L335.5 29.03125L331.59375 23.546875L333.40625 23.546875L335.48438 26.484375Q336.125 27.390625 336.40625 27.890625Q336.78125 27.265625 337.3125 26.578125L339.60938 23.546875L341.26562 23.546875L337.23438 28.9375L341.57812 35.0L339.70312 35.0L336.8125 30.90625Q336.57812 30.5625 336.3125 30.140625Q335.9375 30.765625 335.76562 31.0L332.89062 35.0L331.07812 35.0ZM348.46875 31.953125L349.85938 32.140625Q349.625 33.5625 348.6875 34.375Q347.76562 35.1875 346.40625 35.1875Q344.70312 35.1875 343.65625 34.078125Q342.625 32.953125 342.625 30.875Q342.625 29.53125 343.0625 28.53125Q343.51562 27.515625 344.42188 27.015625Q345.34375 26.515625 346.40625 26.515625Q347.76562 26.515625 348.625 27.203125Q349.48438 27.875 349.71875 29.140625L348.35938 29.34375Q348.15625 28.515625 347.65625 28.09375Q347.17188 27.671875 346.46875 27.671875Q345.40625 27.671875 344.73438 28.4375Q344.07812 29.1875 344.07812 30.84375Q344.07812 32.515625 344.71875 33.28125Q345.35938 34.03125 346.39062 34.03125Q347.21875 34.03125 347.76562 33.53125Q348.32812 33.015625 348.46875 31.953125ZM350.53125 30.84375Q350.53125 28.546875 351.8125 27.4375Q352.89062 26.515625 354.42188 26.515625Q356.14062 26.515625 357.21875 27.640625Q358.3125 28.75 358.3125 30.734375Q358.3125 32.328125 357.82812 33.25Q357.34375 34.171875 356.42188 34.6875Q355.51562 35.1875 354.42188 35.1875Q352.6875 35.1875 351.60938 34.078125Q350.53125 32.953125 350.53125 30.84375ZM351.98438 30.84375Q351.98438 32.4375 352.67188 33.234375Q353.375 34.03125 354.42188 34.03125Q355.46875 34.03125 356.15625 33.234375Q356.85938 32.4375 356.85938 30.796875Q356.85938 29.265625 356.15625 28.46875Q355.46875 27.671875 354.42188 27.671875Q353.375 27.671875 352.67188 28.46875Q351.98438 29.25 351.98438 30.84375ZM365.4375 35.0L365.4375 33.953125Q364.65625 35.1875 363.125 35.1875Q362.125 35.1875 361.29688 34.640625Q360.46875 34.09375 360.0 33.109375Q359.54688 32.125 359.54688 30.859375Q359.54688 29.609375 359.95312 28.609375Q360.375 27.59375 361.20312 27.0625Q362.03125 26.515625 363.0625 26.515625Q363.8125 26.515625 364.39062 26.828125Q364.98438 27.140625 365.34375 27.65625L365.34375 23.546875L366.75 23.546875L366.75 35.0L365.4375 35.0ZM361.0 30.859375Q361.0 32.453125 361.67188 33.25Q362.34375 34.03125 363.25 34.03125Q364.17188 34.03125 364.8125 33.28125Q365.46875 32.515625 365.46875 30.96875Q365.46875 29.265625 364.8125 28.46875Q364.15625 27.671875 363.1875 27.671875Q362.25 27.671875 361.625 28.4375Q361.0 29.203125 361.0 30.859375ZM374.73438 32.328125L376.1875 32.5Q375.84375 33.78125 374.90625 34.484375Q373.98438 35.1875 372.54688 35.1875Q370.71875 35.1875 369.65625 34.0625Q368.59375 32.9375 368.59375 30.921875Q368.59375 28.828125 369.67188 27.671875Q370.75 26.515625 372.46875 26.515625Q374.125 26.515625 375.17188 27.65625Q376.23438 28.78125 376.23438 30.828125Q376.23438 30.953125 376.23438 31.203125L370.04688 31.203125Q370.125 32.578125 370.8125 33.3125Q371.51562 34.03125 372.54688 34.03125Q373.32812 34.03125 373.875 33.625Q374.42188 33.21875 374.73438 32.328125ZM370.125 30.046875L374.75 30.046875Q374.65625 29.0 374.21875 28.484375Q373.54688 27.671875 372.48438 27.671875Q371.51562 27.671875 370.84375 28.328125Q370.1875 28.96875 370.125 30.046875ZM379.35938 35.0L378.04688 35.0L378.04688 23.546875L379.45312 23.546875L379.45312 27.625Q380.34375 26.515625 381.73438 26.515625Q382.5 26.515625 383.17188 26.828125Q383.85938 27.125 384.29688 27.6875Q384.75 28.25 385.0 29.046875Q385.25 29.828125 385.25 30.71875Q385.25 32.859375 384.1875 34.03125Q383.14062 35.1875 381.65625 35.1875Q380.1875 35.1875 379.35938 33.953125L379.35938 35.0ZM379.34375 30.78125Q379.34375 32.28125 379.75 32.9375Q380.40625 34.03125 381.54688 34.03125Q382.46875 34.03125 383.14062 33.234375Q383.8125 32.421875 383.8125 30.84375Q383.8125 29.21875 383.15625 28.453125Q382.51562 27.671875 381.60938 27.671875Q380.6875 27.671875 380.01562 28.46875Q379.34375 29.265625 379.34375 30.78125ZM392.5 35.0L392.5 33.78125Q391.53125 35.1875 389.85938 35.1875Q389.125 35.1875 388.48438 34.90625Q387.85938 34.625 387.54688 34.203125Q387.23438 33.765625 387.10938 33.15625Q387.03125 32.734375 387.03125 31.84375L387.03125 26.703125L388.4375 26.703125L388.4375 31.296875Q388.4375 32.40625 388.51562 32.78125Q388.65625 33.34375 389.07812 33.65625Q389.51562 33.96875 390.14062 33.96875Q390.78125 33.96875 391.32812 33.65625Q391.89062 33.328125 392.10938 32.765625Q392.34375 32.203125 392.34375 31.140625L392.34375 26.703125L393.75 26.703125L393.75 35.0L392.5 35.0ZM396.0625 25.15625L396.0625 23.546875L397.46875 23.546875L397.46875 25.15625L396.0625 25.15625ZM396.0625 35.0L396.0625 26.703125L397.46875 26.703125L397.46875 35.0L396.0625 35.0ZM400.03125 35.0L400.03125 23.546875L401.4375 23.546875L401.4375 35.0L400.03125 35.0ZM409.4375 35.0L409.4375 33.953125Q408.65625 35.1875 407.125 35.1875Q406.125 35.1875 405.29688 34.640625Q404.46875 34.09375 404.0 33.109375Q403.54688 32.125 403.54688 30.859375Q403.54688 29.609375 403.95312 28.609375Q404.375 27.59375 405.20312 27.0625Q406.03125 26.515625 407.0625 26.515625Q407.8125 26.515625 408.39062 26.828125Q408.98438 27.140625 409.34375 27.65625L409.34375 23.546875L410.75 23.546875L410.75 35.0L409.4375 35.0ZM405.0 30.859375Q405.0 32.453125 405.67188 33.25Q406.34375 34.03125 407.25 34.03125Q408.17188 34.03125 408.8125 33.28125Q409.46875 32.515625 409.46875 30.96875Q409.46875 29.265625 408.8125 28.46875Q408.15625 27.671875 407.1875 27.671875Q406.25 27.671875 405.625 28.4375Q405.0 29.203125 405.0 30.859375Z" fill-rule="nonzero"/><path fill="#43a047" d="M428.0 24.5C428.0 23.947716 428.44772 23.5 429.0 23.5L439.0 23.5C439.55228 23.5 440.0 23.947716 440.0 24.5L440.0 34.5C440.0 35.052284 439.55228 35.5 439.0 35.5L429.0 35.5C428.44772 35.5 428.0 35.052284 428.0 34.5Z" fill-rule="nonzero"/><path fill="#24292e" d="M449.17188 35.0L449.17188 23.546875L453.46875 23.546875Q454.78125 23.546875 455.57812 23.890625Q456.375 24.234375 456.8125 24.96875Q457.26562 25.6875 457.26562 26.46875Q457.26562 27.203125 456.85938 27.859375Q456.46875 28.5 455.67188 28.90625Q456.70312 29.203125 457.26562 29.9375Q457.82812 30.671875 457.82812 31.671875Q457.82812 32.484375 457.48438 33.171875Q457.14062 33.859375 456.64062 34.234375Q456.14062 34.609375 455.39062 34.8125Q454.64062 35.0 453.54688 35.0L449.17188 35.0ZM450.6875 28.359375L453.17188 28.359375Q454.17188 28.359375 454.60938 28.21875Q455.1875 28.046875 455.48438 27.65625Q455.78125 27.25 455.78125 26.65625Q455.78125 26.078125 455.5 25.65625Q455.23438 25.21875 454.71875 25.0625Q454.21875 24.890625 452.98438 24.890625L450.6875 24.890625L450.6875 28.359375ZM450.6875 33.640625L453.54688 33.640625Q454.28125 33.640625 454.57812 33.59375Q455.09375 33.5 455.4375 33.28125Q455.79688 33.0625 456.01562 32.640625Q456.25 32.21875 456.25 31.671875Q456.25 31.03125 455.92188 30.5625Q455.59375 30.09375 455.01562 29.90625Q454.4375 29.703125 453.34375 29.703125L450.6875 29.703125L450.6875 33.640625ZM465.46875 33.96875Q464.6875 34.640625 463.96875 34.921875Q463.25 35.1875 462.42188 35.1875Q461.04688 35.1875 460.3125 34.515625Q459.57812 33.84375 459.57812 32.8125Q459.57812 32.203125 459.85938 31.703125Q460.14062 31.1875 460.57812 30.890625Q461.03125 30.578125 461.59375 30.421875Q462.01562 30.3125 462.84375 30.21875Q464.54688 30.015625 465.35938 29.734375Q465.35938 29.4375 465.35938 29.359375Q465.35938 28.5 464.96875 28.15625Q464.42188 27.671875 463.35938 27.671875Q462.375 27.671875 461.89062 28.03125Q461.42188 28.375 461.20312 29.25L459.82812 29.0625Q460.01562 28.1875 460.4375 27.640625Q460.875 27.09375 461.6875 26.8125Q462.5 26.515625 463.5625 26.515625Q464.625 26.515625 465.28125 26.765625Q465.95312 27.015625 466.26562 27.390625Q466.57812 27.765625 466.70312 28.34375Q466.78125 28.703125 466.78125 29.640625L466.78125 31.515625Q466.78125 33.484375 466.85938 34.0Q466.95312 34.515625 467.21875 35.0L465.75 35.0Q465.53125 34.5625 465.46875 33.96875ZM465.35938 30.828125Q464.59375 31.140625 463.0625 31.359375Q462.1875 31.484375 461.82812 31.640625Q461.46875 31.796875 461.26562 32.109375Q461.07812 32.40625 461.07812 32.765625Q461.07812 33.328125 461.5 33.703125Q461.9375 34.078125 462.75 34.078125Q463.5625 34.078125 464.1875 33.734375Q464.82812 33.375 465.125 32.75Q465.35938 32.28125 465.35938 31.34375L465.35938 30.828125ZM468.3125 35.0L468.3125 33.859375L473.59375 27.796875Q472.70312 27.84375 472.01562 27.84375L468.625 27.84375L468.625 26.703125L475.40625 26.703125L475.40625 27.625L470.92188 32.890625L470.04688 33.859375Q471.0 33.78125 471.82812 33.78125L475.65625 33.78125L475.65625 35.0L468.3125 35.0ZM482.73438 32.328125L484.1875 32.5Q483.84375 33.78125 482.90625 34.484375Q481.98438 35.1875 480.54688 35.1875Q478.71875 35.1875 477.65625 34.0625Q476.59375 32.9375 476.59375 30.921875Q476.59375 28.828125 477.67188 27.671875Q478.75 26.515625 480.46875 26.515625Q482.125 26.515625 483.17188 27.65625Q484.23438 28.78125 484.23438 30.828125Q484.23438 30.953125 484.23438 31.203125L478.04688 31.203125Q478.125 32.578125 478.8125 33.3125Q479.51562 34.03125 480.54688 34.03125Q481.32812 34.03125 481.875 33.625Q482.42188 33.21875 482.73438 32.328125ZM478.125 30.046875L482.75 30.046875Q482.65625 29.0 482.21875 28.484375Q481.54688 27.671875 480.48438 27.671875Q479.51562 27.671875 478.84375 28.328125Q478.1875 28.96875 478.125 30.046875ZM486.03125 35.0L486.03125 23.546875L487.4375 23.546875L487.4375 35.0L486.03125 35.0Z" fill-rule="nonzero"/></svg>