<svg version="1.1" viewBox="0.0 0.0 800.0 440.0" fill="none" stroke="none" stroke-linecap="square" stroke-miterlimit="10" width="800" height="440" xmlns:xlink="http://www.w3.org/1999/xlink" xmlns="http://www.w3.org/2000/svg"><path fill="#ffffff" d="M0 0L800.0 0L800.0 440.0L0 440.0L0 0Z" fill-rule="nonzero"/><path stroke="#333333" stroke-width="1.0" stroke-linecap="butt" d="M62.5 391.5L778.5 391.5" fill-rule="nonzero"/><path stroke="#cccccc" stroke-width="1.0" stroke-linecap="butt" d="M62.5 274.5L778.5 274.5" fill-rule="nonzero"/><path stroke="#cccccc" stroke-width="1.0" stroke-linecap="butt" d="M62.5 157.5L778.5 157.5" fill-rule="nonzero"/><path stroke="#cccccc" stroke-width="1.0" stroke-linecap="butt" d="M62.5 40.5L778.5 40.5" fill-rule="nonzero"/><clipPath id="id_0"><path d="M62.0 31.5L778.0 31.5L778.0 391.0L62.0 391.0L62.0 31.5Z" clip-rule="nonzero"/></clipPath><path stroke="#000000" stroke-width="2.0" stroke-linecap="butt" stroke-opacity="0.0" clip-path="url(#id_0)" d="M196.0 391.0L109.0 391.0L109.0 290.0C109.0 288.89542 109.89543 288.0 111.0 288.0L194.0 288.0C195.10457 288.0 196.0 288.89542 196.0 290.0Z" fill-rule="nonzero"/><path fill="#fbbc04" clip-path="url(#id_0)" d="M196.0 391.0L109.0 391.0L109.0 290.0C109.0 288.89542 109.89543 288.0 111.0 288.0L194.0 288.0C195.10457 288.0 196.0 288.89542 196.0 290.0Z" fill-rule="nonzero"/><path stroke="#000000" stroke-width="2.0" stroke-linecap="butt" stroke-opacity="0.0" clip-path="url(#id_0)" d="M330.0 391.0L243.0 391.0L243.0 34.0C243.0 32.89543 243.89543 32.0 245.0 32.0L328.0 32.0C329.10458 32.0 330.0 32.89543 330.0 34.0Z" fill-rule="nonzero"/><path fill="#fbbc04" clip-path="url(#id_0)" d="M330.0 391.0L243.0 391.0L243.0 34.0C243.0 32.89543 243.89543 32.0 245.0 32.0L328.0 32.0C329.10458 32.0 330.0 32.89543 330.0 34.0Z" fill-rule="nonzero"/><path stroke="#000000" stroke-width="2.0" stroke-linecap="butt" stroke-opacity="0.0" clip-path="url(#id_0)" d="M464.0 391.0L377.0 391.0L377.0 295.0C377.0 293.89542 377.89542 293.0 379.0 293.0L462.0 293.0C463.10458 293.0 464.0 293.89542 464.0 295.0Z" fill-rule="nonzero"/><path fill="#fbbc04" clip-path="url(#id_0)" d="M464.0 391.0L377.0 391.0L377.0 295.0C377.0 293.89542 377.89542 293.0 379.0 293.0L462.0 293.0C463.10458 293.0 464.0 293.89542 464.0 295.0Z" fill-rule="nonzero"/><path stroke="#000000" stroke-width="2.0" stroke-linecap="butt" stroke-opacity="0.0" clip-path="url(#id_0)" d="M598.0 391.0L511.0 391.0L511.0 351.0C511.0 349.89542 511.89542 349.0 513.0 349.0L596.0 349.0C597.10455 349.0 598.0 349.89542 598.0 351.0Z" fill-rule="nonzero"/><path fill="#fbbc04" clip-path="url(#id_0)" d="M598.0 391.0L511.0 391.0L511.0 351.0C511.0 349.89542 511.89542 349.0 513.0 349.0L596.0 349.0C597.10455 349.0 598.0 349.89542 598.0 351.0Z" fill-rule="nonzero"/><path stroke="#000000" stroke-width="2.0" stroke-linecap="butt" stroke-opacity="0.0" clip-path="url(#id_0)" d="M732.0 391.0L645.0 391.0L645.0 370.0C645.0 368.89542 645.89545 368.0 647.0 368.0L730.0 368.0C731.10455 368.0 732.0 368.89542 732.0 370.0Z" fill-rule="nonzero"/><path fill="#fbbc04" clip-path="url(#id_0)" d="M732.0 391.0L645.0 391.0L645.0 370.0C645.0 368.89542 645.89545 368.0 647.0 368.0L730.0 368.0C731.10455 368.0 732.0 368.89542 732.0 370.0Z" fill-rule="nonzero"/><path stroke="#fbbc04" stroke-width="3.0" stroke-linejoin="round" stroke-linecap="round" d="M144.0625 308.32632L144.0625 309.6857L136.48438 309.6857Q136.46875 309.17007 136.65625 308.70132Q136.9375 307.9357 137.57812 307.1857Q138.21875 306.4357 139.42188 305.45132Q141.28125 303.92007 141.9375 303.02945Q142.59375 302.1232 142.59375 301.32632Q142.59375 300.4982 142.0 299.92007Q141.40625 299.34195 140.4375 299.34195Q139.42188 299.34195 138.8125 299.95132Q138.20312 300.5607 138.20312 301.63882L136.75 301.4982Q136.90625 299.8732 137.875 299.02945Q138.84375 298.1857 140.46875 298.1857Q142.125 298.1857 143.07812 299.10757Q144.04688 300.01382 144.04688 301.35757Q144.04688 302.04507 143.76562 302.71695Q143.48438 303.3732 142.82812 304.10757Q142.17188 304.84195 140.65625 306.1232Q139.39062 307.1857 139.03125 307.57632Q138.67188 307.95132 138.4375 308.32632L144.0625 308.32632ZM153.0625 308.32632L153.0625 309.6857L145.48438 309.6857Q145.46875 309.17007 145.65625 308.70132Q145.9375 307.9357 146.57812 307.1857Q147.21875 306.4357 148.42188 305.45132Q150.28125 303.92007 150.9375 303.02945Q151.59375 302.1232 151.59375 301.32632Q151.59375 300.4982 151.0 299.92007Q150.40625 299.34195 149.4375 299.34195Q148.42188 299.34195 147.8125 299.95132Q147.20312 300.5607 147.20312 301.63882L145.75 301.4982Q145.90625 299.8732 146.875 299.02945Q147.84375 298.1857 149.46875 298.1857Q151.125 298.1857 152.07812 299.10757Q153.04688 300.01382 153.04688 301.35757Q153.04688 302.04507 152.76562 302.71695Q152.48438 303.3732 151.82812 304.10757Q151.17188 304.84195 149.65625 306.1232Q148.39062 307.1857 148.03125 307.57632Q147.67188 307.95132 147.4375 308.32632L153.0625 308.32632ZM154.9375 300.98257Q154.9375 299.7482 155.54688 298.88882Q156.17188 298.02945 157.34375 298.02945Q158.42188 298.02945 159.125 298.8107Q159.82812 299.57632 159.82812 301.0607Q159.82812 302.51382 159.10938 303.3107Q158.40625 304.09195 157.35938 304.09195Q156.3125 304.09195 155.625 303.32632Q154.9375 302.54507 154.9375 300.98257ZM157.375 298.9982Q156.85938 298.9982 156.5 299.45132Q156.15625 299.90445 156.15625 301.1232Q156.15625 302.21695 156.5 302.67007Q156.85938 303.1232 157.375 303.1232Q157.90625 303.1232 158.25 302.67007Q158.60938 302.21695 158.60938 301.01382Q158.60938 299.90445 158.25 299.45132Q157.90625 298.9982 157.375 298.9982ZM157.39062 310.10757L163.65625 298.02945L164.79688 298.02945L158.54688 310.10757L157.39062 310.10757ZM162.34375 306.9982Q162.34375 305.76382 162.95312 304.90445Q163.57812 304.04507 164.75 304.04507Q165.82812 304.04507 166.53125 304.82632Q167.25 305.59195 167.25 307.07632Q167.25 308.52945 166.53125 309.32632Q165.8125 310.10757 164.76562 310.10757Q163.71875 310.10757 163.03125 309.32632Q162.34375 308.54507 162.34375 306.9982ZM164.79688 305.01382Q164.26562 305.01382 163.90625 305.46695Q163.5625 305.92007 163.5625 307.13882Q163.5625 308.23257 163.90625 308.6857Q164.26562 309.13882 164.78125 309.13882Q165.32812 309.13882 165.67188 308.6857Q166.01562 308.23257 166.01562 307.02945Q166.01562 305.92007 165.65625 305.46695Q165.3125 305.01382 164.79688 305.01382Z" fill-rule="nonzero"/><path fill="#000000" d="M144.0625 308.32632L144.0625 309.6857L136.48438 309.6857Q136.46875 309.17007 136.65625 308.70132Q136.9375 307.9357 137.57812 307.1857Q138.21875 306.4357 139.42188 305.45132Q141.28125 303.92007 141.9375 303.02945Q142.59375 302.1232 142.59375 301.32632Q142.59375 300.4982 142.0 299.92007Q141.40625 299.34195 140.4375 299.34195Q139.42188 299.34195 138.8125 299.95132Q138.20312 300.5607 138.20312 301.63882L136.75 301.4982Q136.90625 299.8732 137.875 299.02945Q138.84375 298.1857 140.46875 298.1857Q142.125 298.1857 143.07812 299.10757Q144.04688 300.01382 144.04688 301.35757Q144.04688 302.04507 143.76562 302.71695Q143.48438 303.3732 142.82812 304.10757Q142.17188 304.84195 140.65625 306.1232Q139.39062 307.1857 139.03125 307.57632Q138.67188 307.95132 138.4375 308.32632L144.0625 308.32632ZM153.0625 308.32632L153.0625 309.6857L145.48438 309.6857Q145.46875 309.17007 145.65625 308.70132Q145.9375 307.9357 146.57812 307.1857Q147.21875 306.4357 148.42188 305.45132Q150.28125 303.92007 150.9375 303.02945Q151.59375 302.1232 151.59375 301.32632Q151.59375 300.4982 151.0 299.92007Q150.40625 299.34195 149.4375 299.34195Q148.42188 299.34195 147.8125 299.95132Q147.20312 300.5607 147.20312 301.63882L145.75 301.4982Q145.90625 299.8732 146.875 299.02945Q147.84375 298.1857 149.46875 298.1857Q151.125 298.1857 152.07812 299.10757Q153.04688 300.01382 153.04688 301.35757Q153.04688 302.04507 152.76562 302.71695Q152.48438 303.3732 151.82812 304.10757Q151.17188 304.84195 149.65625 306.1232Q148.39062 307.1857 148.03125 307.57632Q147.67188 307.95132 147.4375 308.32632L153.0625 308.32632ZM154.9375 300.98257Q154.9375 299.7482 155.54688 298.88882Q156.17188 298.02945 157.34375 298.02945Q158.42188 298.02945 159.125 298.8107Q159.82812 299.57632 159.82812 301.0607Q159.82812 302.51382 159.10938 303.3107Q158.40625 304.09195 157.35938 304.09195Q156.3125 304.09195 155.625 303.32632Q154.9375 302.54507 154.9375 300.98257ZM157.375 298.9982Q156.85938 298.9982 156.5 299.45132Q156.15625 299.90445 156.15625 301.1232Q156.15625 302.21695 156.5 302.67007Q156.85938 303.1232 157.375 303.1232Q157.90625 303.1232 158.25 302.67007Q158.60938 302.21695 158.60938 301.01382Q158.60938 299.90445 158.25 299.45132Q157.90625 298.9982 157.375 298.9982ZM157.39062 310.10757L163.65625 298.02945L164.79688 298.02945L158.54688 310.10757L157.39062 310.10757ZM162.34375 306.9982Q162.34375 305.76382 162.95312 304.90445Q163.57812 304.04507 164.75 304.04507Q165.82812 304.04507 166.53125 304.82632Q167.25 305.59195 167.25 307.07632Q167.25 308.52945 166.53125 309.32632Q165.8125 310.10757 164.76562 310.10757Q163.71875 310.10757 163.03125 309.32632Q162.34375 308.54507 162.34375 306.9982ZM164.79688 305.01382Q164.26562 305.01382 163.90625 305.46695Q163.5625 305.92007 163.5625 307.13882Q163.5625 308.23257 163.90625 308.6857Q164.26562 309.13882 164.78125 309.13882Q165.32812 309.13882 165.67188 308.6857Q166.01562 308.23257 166.01562 307.02945Q166.01562 305.92007 165.65625 305.46695Q165.3125 305.01382 164.79688 305.01382Z" fill-rule="nonzero"/><path stroke="#fbbc04" stroke-width="3.0" stroke-linejoin="round" stroke-linecap="round" d="M270.76562 42.946877L270.76562 41.5875L278.17188 41.5875L278.17188 42.68125Q277.07812 43.853127 276.0 45.790627Q274.9375 47.7125 274.34375 49.74375Q273.92188 51.18125 273.8125 52.9L272.35938 52.9Q272.39062 51.540627 272.89062 49.634377Q273.40625 47.7125 274.34375 45.946877Q275.29688 44.165627 276.375 42.946877L270.76562 42.946877ZM279.76562 42.946877L279.76562 41.5875L287.17188 41.5875L287.17188 42.68125Q286.07812 43.853127 285.0 45.790627Q283.9375 47.7125 283.34375 49.74375Q282.92188 51.18125 282.8125 52.9L281.35938 52.9Q281.39062 51.540627 281.89062 49.634377Q282.40625 47.7125 283.34375 45.946877Q284.29688 44.165627 285.375 42.946877L279.76562 42.946877ZM288.9375 44.196877Q288.9375 42.9625 289.54688 42.103127Q290.17188 41.24375 291.34375 41.24375Q292.42188 41.24375 293.125 42.025Q293.82812 42.790627 293.82812 44.275Q293.82812 45.728127 293.10938 46.525Q292.40625 47.30625 291.35938 47.30625Q290.3125 47.30625 289.625 46.540627Q288.9375 45.759377 288.9375 44.196877ZM291.375 42.2125Q290.85938 42.2125 290.5 42.665627Q290.15625 43.11875 290.15625 44.3375Q290.15625 45.43125 290.5 45.884377Q290.85938 46.3375 291.375 46.3375Q291.90625 46.3375 292.25 45.884377Q292.60938 45.43125 292.60938 44.228127Q292.60938 43.11875 292.25 42.665627Q291.90625 42.2125 291.375 42.2125ZM291.39062 53.321877L297.65625 41.24375L298.79688 41.24375L292.54688 53.321877L291.39062 53.321877ZM296.34375 50.2125Q296.34375 48.978127 296.95312 48.11875Q297.57812 47.259377 298.75 47.259377Q299.82812 47.259377 300.53125 48.040627Q301.25 48.80625 301.25 50.290627Q301.25 51.74375 300.53125 52.540627Q299.8125 53.321877 298.76562 53.321877Q297.71875 53.321877 297.03125 52.540627Q296.34375 51.759377 296.34375 50.2125ZM298.79688 48.228127Q298.26562 48.228127 297.90625 48.68125Q297.5625 49.134377 297.5625 50.353127Q297.5625 51.446877 297.90625 51.9Q298.26562 52.353127 298.78125 52.353127Q299.32812 52.353127 299.67188 51.9Q300.01562 51.446877 300.01562 50.24375Q300.01562 49.134377 299.65625 48.68125Q299.3125 48.228127 298.79688 48.228127Z" fill-rule="nonzero"/><path fill="#000000" d="M270.76562 42.946877L270.76562 41.5875L278.17188 41.5875L278.17188 42.68125Q277.07812 43.853127 276.0 45.790627Q274.9375 47.7125 274.34375 49.74375Q273.92188 51.18125 273.8125 52.9L272.35938 52.9Q272.39062 51.540627 272.89062 49.634377Q273.40625 47.7125 274.34375 45.946877Q275.29688 44.165627 276.375 42.946877L270.76562 42.946877ZM279.76562 42.946877L279.76562 41.5875L287.17188 41.5875L287.17188 42.68125Q286.07812 43.853127 285.0 45.790627Q283.9375 47.7125 283.34375 49.74375Q282.92188 51.18125 282.8125 52.9L281.35938 52.9Q281.39062 51.540627 281.89062 49.634377Q282.40625 47.7125 283.34375 45.946877Q284.29688 44.165627 285.375 42.946877L279.76562 42.946877ZM288.9375 44.196877Q288.9375 42.9625 289.54688 42.103127Q290.17188 41.24375 291.34375 41.24375Q292.42188 41.24375 293.125 42.025Q293.82812 42.790627 293.82812 44.275Q293.82812 45.728127 293.10938 46.525Q292.40625 47.30625 291.35938 47.30625Q290.3125 47.30625 289.625 46.540627Q288.9375 45.759377 288.9375 44.196877ZM291.375 42.2125Q290.85938 42.2125 290.5 42.665627Q290.15625 43.11875 290.15625 44.3375Q290.15625 45.43125 290.5 45.884377Q290.85938 46.3375 291.375 46.3375Q291.90625 46.3375 292.25 45.884377Q292.60938 45.43125 292.60938 44.228127Q292.60938 43.11875 292.25 42.665627Q291.90625 42.2125 291.375 42.2125ZM291.39062 53.321877L297.65625 41.24375L298.79688 41.24375L292.54688 53.321877L291.39062 53.321877ZM296.34375 50.2125Q296.34375 48.978127 296.95312 48.11875Q297.57812 47.259377 298.75 47.259377Q299.82812 47.259377 300.53125 48.040627Q301.25 48.80625 301.25 50.290627Q301.25 51.74375 300.53125 52.540627Q299.8125 53.321877 298.76562 53.321877Q297.71875 53.321877 297.03125 52.540627Q296.34375 51.759377 296.34375 50.2125ZM298.79688 48.228127Q298.26562 48.228127 297.90625 48.68125Q297.5625 49.134377 297.5625 50.353127Q297.5625 51.446877 297.90625 51.9Q298.26562 52.353127 298.78125 52.353127Q299.32812 52.353127 299.67188 51.9Q300.01562 51.446877 300.01562 50.24375Q300.01562 49.134377 299.65625 48.68125Q299.3125 48.228127 298.79688 48.228127Z" fill-rule="nonzero"/><path stroke="#fbbc04" stroke-width="3.0" stroke-linejoin="round" stroke-linecap="round" d="M412.0625 312.99518L412.0625 314.35455L404.48438 314.35455Q404.46875 313.83893 404.65625 313.37018Q404.9375 312.60455 405.57812 311.85455Q406.21875 311.10455 407.42188 310.12018Q409.28125 308.58893 409.9375 307.6983Q410.59375 306.79205 410.59375 305.99518Q410.59375 305.16705 410.0 304.58893Q409.40625 304.0108 408.4375 304.0108Q407.42188 304.0108 406.8125 304.62018Q406.20312 305.22955 406.20312 306.30768L404.75 306.16705Q404.90625 304.54205 405.875 303.6983Q406.84375 302.85455 408.46875 302.85455Q410.125 302.85455 411.07812 303.77643Q412.04688 304.68268 412.04688 306.02643Q412.04688 306.71393 411.76562 307.3858Q411.48438 308.04205 410.82812 308.77643Q410.17188 309.5108 408.65625 310.79205Q407.39062 311.85455 407.03125 312.24518Q406.67188 312.62018 406.4375 312.99518L412.0625 312.99518ZM418.96875 314.35455L417.5625 314.35455L417.5625 305.3858Q417.04688 305.87018 416.21875 306.35455Q415.40625 306.83893 414.75 307.08893L414.75 305.72955Q415.92188 305.16705 416.79688 304.3858Q417.6875 303.58893 418.0625 302.85455L418.96875 302.85455L418.96875 314.35455ZM422.9375 305.65143Q422.9375 304.41705 423.54688 303.55768Q424.17188 302.6983 425.34375 302.6983Q426.42188 302.6983 427.125 303.47955Q427.82812 304.24518 427.82812 305.72955Q427.82812 307.18268 427.10938 307.97955Q426.40625 308.7608 425.35938 308.7608Q424.3125 308.7608 423.625 307.99518Q422.9375 307.21393 422.9375 305.65143ZM425.375 303.66705Q424.85938 303.66705 424.5 304.12018Q424.15625 304.5733 424.15625 305.79205Q424.15625 306.8858 424.5 307.33893Q424.85938 307.79205 425.375 307.79205Q425.90625 307.79205 426.25 307.33893Q426.60938 306.8858 426.60938 305.68268Q426.60938 304.5733 426.25 304.12018Q425.90625 303.66705 425.375 303.66705ZM425.39062 314.77643L431.65625 302.6983L432.79688 302.6983L426.54688 314.77643L425.39062 314.77643ZM430.34375 311.66705Q430.34375 310.43268 430.95312 309.5733Q431.57812 308.71393 432.75 308.71393Q433.82812 308.71393 434.53125 309.49518Q435.25 310.2608 435.25 311.74518Q435.25 313.1983 434.53125 313.99518Q433.8125 314.77643 432.76562 314.77643Q431.71875 314.77643 431.03125 313.99518Q430.34375 313.21393 430.34375 311.66705ZM432.79688 309.68268Q432.26562 309.68268 431.90625 310.1358Q431.5625 310.58893 431.5625 311.80768Q431.5625 312.90143 431.90625 313.35455Q432.26562 313.80768 432.78125 313.80768Q433.32812 313.80768 433.67188 313.35455Q434.01562 312.90143 434.01562 311.6983Q434.01562 310.58893 433.65625 310.1358Q433.3125 309.68268 432.79688 309.68268Z" fill-rule="nonzero"/><path fill="#000000" d="M412.0625 312.99518L412.0625 314.35455L404.48438 314.35455Q404.46875 313.83893 404.65625 313.37018Q404.9375 312.60455 405.57812 311.85455Q406.21875 311.10455 407.42188 310.12018Q409.28125 308.58893 409.9375 307.6983Q410.59375 306.79205 410.59375 305.99518Q410.59375 305.16705 410.0 304.58893Q409.40625 304.0108 408.4375 304.0108Q407.42188 304.0108 406.8125 304.62018Q406.20312 305.22955 406.20312 306.30768L404.75 306.16705Q404.90625 304.54205 405.875 303.6983Q406.84375 302.85455 408.46875 302.85455Q410.125 302.85455 411.07812 303.77643Q412.04688 304.68268 412.04688 306.02643Q412.04688 306.71393 411.76562 307.3858Q411.48438 308.04205 410.82812 308.77643Q410.17188 309.5108 408.65625 310.79205Q407.39062 311.85455 407.03125 312.24518Q406.67188 312.62018 406.4375 312.99518L412.0625 312.99518ZM418.96875 314.35455L417.5625 314.35455L417.5625 305.3858Q417.04688 305.87018 416.21875 306.35455Q415.40625 306.83893 414.75 307.08893L414.75 305.72955Q415.92188 305.16705 416.79688 304.3858Q417.6875 303.58893 418.0625 302.85455L418.96875 302.85455L418.96875 314.35455ZM422.9375 305.65143Q422.9375 304.41705 423.54688 303.55768Q424.17188 302.6983 425.34375 302.6983Q426.42188 302.6983 427.125 303.47955Q427.82812 304.24518 427.82812 305.72955Q427.82812 307.18268 427.10938 307.97955Q426.40625 308.7608 425.35938 308.7608Q424.3125 308.7608 423.625 307.99518Q422.9375 307.21393 422.9375 305.65143ZM425.375 303.66705Q424.85938 303.66705 424.5 304.12018Q424.15625 304.5733 424.15625 305.79205Q424.15625 306.8858 424.5 307.33893Q424.85938 307.79205 425.375 307.79205Q425.90625 307.79205 426.25 307.33893Q426.60938 306.8858 426.60938 305.68268Q426.60938 304.5733 426.25 304.12018Q425.90625 303.66705 425.375 303.66705ZM425.39062 314.77643L431.65625 302.6983L432.79688 302.6983L426.54688 314.77643L425.39062 314.77643ZM430.34375 311.66705Q430.34375 310.43268 430.95312 309.5733Q431.57812 308.71393 432.75 308.71393Q433.82812 308.71393 434.53125 309.49518Q435.25 310.2608 435.25 311.74518Q435.25 313.1983 434.53125 313.99518Q433.8125 314.77643 432.76562 314.77643Q431.71875 314.77643 431.03125 313.99518Q430.34375 313.21393 430.34375 311.66705ZM432.79688 309.68268Q432.26562 309.68268 431.90625 310.1358Q431.5625 310.58893 431.5625 311.80768Q431.5625 312.90143 431.90625 313.35455Q432.26562 313.80768 432.78125 313.80768Q433.32812 313.80768 433.67188 313.35455Q434.01562 312.90143 434.01562 311.6983Q434.01562 310.58893 433.65625 310.1358Q433.3125 309.68268 432.79688 309.68268Z" fill-rule="nonzero"/><path stroke="#fbbc04" stroke-width="3.0" stroke-linejoin="round" stroke-linecap="round" d="M543.375 367.72427L544.7344 367.59927Q544.90625 368.5524 545.3906 368.9899Q545.875 369.41177 546.625 369.41177Q547.28125 369.41177 547.7656 369.1149Q548.25 368.81802 548.5625 368.33365Q548.875 367.83365 549.0781 366.9899Q549.2969 366.14615 549.2969 365.27115Q549.2969 365.1774 549.2969 364.9899Q548.875 365.66177 548.1406 366.08365Q547.40625 366.4899 546.5625 366.4899Q545.1406 366.4899 544.15625 365.45865Q543.1719 364.4274 543.1719 362.7399Q543.1719 361.00552 544.1875 359.94302Q545.21875 358.88052 546.7656 358.88052Q547.8906 358.88052 548.8125 359.4899Q549.7344 360.08365 550.21875 361.19302Q550.7031 362.3024 550.7031 364.41177Q550.7031 366.6149 550.21875 367.91177Q549.75 369.20865 548.7969 369.89615Q547.8594 370.58365 546.59375 370.58365Q545.25 370.58365 544.3906 369.83365Q543.5469 369.08365 543.375 367.72427ZM549.1406 362.6774Q549.1406 361.45865 548.4844 360.75552Q547.84375 360.03677 546.9375 360.03677Q546.0 360.03677 545.2969 360.8024Q544.6094 361.56802 544.6094 362.78677Q544.6094 363.88052 545.2656 364.56802Q545.9375 365.25552 546.90625 365.25552Q547.875 365.25552 548.5 364.56802Q549.1406 363.88052 549.1406 362.6774ZM552.4375 361.6774Q552.4375 360.44302 553.0469 359.58365Q553.6719 358.72427 554.84375 358.72427Q555.9219 358.72427 556.625 359.50552Q557.3281 360.27115 557.3281 361.75552Q557.3281 363.20865 556.6094 364.00552Q555.90625 364.78677 554.8594 364.78677Q553.8125 364.78677 553.125 364.02115Q552.4375 363.2399 552.4375 361.6774ZM554.875 359.69302Q554.3594 359.69302 554.0 360.14615Q553.65625 360.59927 553.65625 361.81802Q553.65625 362.91177 554.0 363.3649Q554.3594 363.81802 554.875 363.81802Q555.40625 363.81802 555.75 363.3649Q556.1094 362.91177 556.1094 361.70865Q556.1094 360.59927 555.75 360.14615Q555.40625 359.69302 554.875 359.69302ZM554.8906 370.8024L561.15625 358.72427L562.2969 358.72427L556.0469 370.8024L554.8906 370.8024ZM559.84375 367.69302Q559.84375 366.45865 560.4531 365.59927Q561.0781 364.7399 562.25 364.7399Q563.3281 364.7399 564.03125 365.52115Q564.75 366.28677 564.75 367.77115Q564.75 369.22427 564.03125 370.02115Q563.3125 370.8024 562.2656 370.8024Q561.21875 370.8024 560.53125 370.02115Q559.84375 369.2399 559.84375 367.69302ZM562.2969 365.70865Q561.7656 365.70865 561.40625 366.16177Q561.0625 366.6149 561.0625 367.83365Q561.0625 368.9274 561.40625 369.38052Q561.7656 369.83365 562.28125 369.83365Q562.8281 369.83365 563.1719 369.38052Q563.5156 368.9274 563.5156 367.72427Q563.5156 366.6149 563.15625 366.16177Q562.8125 365.70865 562.2969 365.70865Z" fill-rule="nonzero"/><path fill="#000000" d="M543.375 367.72427L544.7344 367.59927Q544.90625 368.5524 545.3906 368.9899Q545.875 369.41177 546.625 369.41177Q547.28125 369.41177 547.7656 369.1149Q548.25 368.81802 548.5625 368.33365Q548.875 367.83365 549.0781 366.9899Q549.2969 366.14615 549.2969 365.27115Q549.2969 365.1774 549.2969 364.9899Q548.875 365.66177 548.1406 366.08365Q547.40625 366.4899 546.5625 366.4899Q545.1406 366.4899 544.15625 365.45865Q543.1719 364.4274 543.1719 362.7399Q543.1719 361.00552 544.1875 359.94302Q545.21875 358.88052 546.7656 358.88052Q547.8906 358.88052 548.8125 359.4899Q549.7344 360.08365 550.21875 361.19302Q550.7031 362.3024 550.7031 364.41177Q550.7031 366.6149 550.21875 367.91177Q549.75 369.20865 548.7969 369.89615Q547.8594 370.58365 546.59375 370.58365Q545.25 370.58365 544.3906 369.83365Q543.5469 369.08365 543.375 367.72427ZM549.1406 362.6774Q549.1406 361.45865 548.4844 360.75552Q547.84375 360.03677 546.9375 360.03677Q546.0 360.03677 545.2969 360.8024Q544.6094 361.56802 544.6094 362.78677Q544.6094 363.88052 545.2656 364.56802Q545.9375 365.25552 546.90625 365.25552Q547.875 365.25552 548.5 364.56802Q549.1406 363.88052 549.1406 362.6774ZM552.4375 361.6774Q552.4375 360.44302 553.0469 359.58365Q553.6719 358.72427 554.84375 358.72427Q555.9219 358.72427 556.625 359.50552Q557.3281 360.27115 557.3281 361.75552Q557.3281 363.20865 556.6094 364.00552Q555.90625 364.78677 554.8594 364.78677Q553.8125 364.78677 553.125 364.02115Q552.4375 363.2399 552.4375 361.6774ZM554.875 359.69302Q554.3594 359.69302 554.0 360.14615Q553.65625 360.59927 553.65625 361.81802Q553.65625 362.91177 554.0 363.3649Q554.3594 363.81802 554.875 363.81802Q555.40625 363.81802 555.75 363.3649Q556.1094 362.91177 556.1094 361.70865Q556.1094 360.59927 555.75 360.14615Q555.40625 359.69302 554.875 359.69302ZM554.8906 370.8024L561.15625 358.72427L562.2969 358.72427L556.0469 370.8024L554.8906 370.8024ZM559.84375 367.69302Q559.84375 366.45865 560.4531 365.59927Q561.0781 364.7399 562.25 364.7399Q563.3281 364.7399 564.03125 365.52115Q564.75 366.28677 564.75 367.77115Q564.75 369.22427 564.03125 370.02115Q563.3125 370.8024 562.2656 370.8024Q561.21875 370.8024 560.53125 370.02115Q559.84375 369.2399 559.84375 367.69302ZM562.2969 365.70865Q561.7656 365.70865 561.40625 366.16177Q561.0625 366.6149 561.0625 367.83365Q561.0625 368.9274 561.40625 369.38052Q561.7656 369.83365 562.28125 369.83365Q562.8281 369.83365 563.1719 369.38052Q563.5156 368.9274 563.5156 367.72427Q563.5156 366.6149 563.15625 366.16177Q562.8125 365.70865 562.2969 365.70865Z" fill-rule="nonzero"/><path stroke="#fbbc04" stroke-width="3.0" stroke-linejoin="round" stroke-linecap="round" d="M677.1719 386.05585L678.6406 385.93085Q678.8125 387.00897 679.40625 387.55585Q680.0 388.0871 680.84375 388.0871Q681.8594 388.0871 682.5625 387.32147Q683.2656 386.55585 683.2656 385.29022Q683.2656 384.0871 682.59375 383.3996Q681.9219 382.69647 680.8281 382.69647Q680.1406 382.69647 679.59375 383.00897Q679.0469 383.32147 678.7344 383.80585L677.4219 383.63397L678.53125 377.75897L684.21875 377.75897L684.21875 379.10272L679.65625 379.10272L679.03125 382.18085Q680.0625 381.4621 681.2031 381.4621Q682.7031 381.4621 683.7344 382.50897Q684.7656 383.54022 684.7656 385.16522Q684.7656 386.72772 683.8594 387.85272Q682.75 389.25897 680.84375 389.25897Q679.28125 389.25897 678.2969 388.38397Q677.3125 387.49335 677.1719 386.05585ZM686.4375 380.35272Q686.4375 379.11835 687.0469 378.25897Q687.6719 377.3996 688.84375 377.3996Q689.9219 377.3996 690.625 378.18085Q691.3281 378.94647 691.3281 380.43085Q691.3281 381.88397 690.6094 382.68085Q689.90625 383.4621 688.8594 383.4621Q687.8125 383.4621 687.125 382.69647Q686.4375 381.91522 686.4375 380.35272ZM688.875 378.36835Q688.3594 378.36835 688.0 378.82147Q687.65625 379.2746 687.65625 380.49335Q687.65625 381.5871 688.0 382.04022Q688.3594 382.49335 688.875 382.49335Q689.40625 382.49335 689.75 382.04022Q690.1094 381.5871 690.1094 380.38397Q690.1094 379.2746 689.75 378.82147Q689.40625 378.36835 688.875 378.36835ZM688.8906 389.47772L695.15625 377.3996L696.2969 377.3996L690.0469 389.47772L688.8906 389.47772ZM693.84375 386.36835Q693.84375 385.13397 694.4531 384.2746Q695.0781 383.41522 696.25 383.41522Q697.3281 383.41522 698.03125 384.19647Q698.75 384.9621 698.75 386.44647Q698.75 387.8996 698.03125 388.69647Q697.3125 389.47772 696.2656 389.47772Q695.21875 389.47772 694.53125 388.69647Q693.84375 387.91522 693.84375 386.36835ZM696.2969 384.38397Q695.7656 384.38397 695.40625 384.8371Q695.0625 385.29022 695.0625 386.50897Q695.0625 387.60272 695.40625 388.05585Q695.7656 388.50897 696.28125 388.50897Q696.8281 388.50897 697.1719 388.05585Q697.5156 387.60272 697.5156 386.3996Q697.5156 385.29022 697.15625 384.8371Q696.8125 384.38397 696.2969 384.38397Z" fill-rule="nonzero"/><path fill="#000000" d="M677.1719 386.05585L678.6406 385.93085Q678.8125 387.00897 679.40625 387.55585Q680.0 388.0871 680.84375 388.0871Q681.8594 388.0871 682.5625 387.32147Q683.2656 386.55585 683.2656 385.29022Q683.2656 384.0871 682.59375 383.3996Q681.9219 382.69647 680.8281 382.69647Q680.1406 382.69647 679.59375 383.00897Q679.0469 383.32147 678.7344 383.80585L677.4219 383.63397L678.53125 377.75897L684.21875 377.75897L684.21875 379.10272L679.65625 379.10272L679.03125 382.18085Q680.0625 381.4621 681.2031 381.4621Q682.7031 381.4621 683.7344 382.50897Q684.7656 383.54022 684.7656 385.16522Q684.7656 386.72772 683.8594 387.85272Q682.75 389.25897 680.84375 389.25897Q679.28125 389.25897 678.2969 388.38397Q677.3125 387.49335 677.1719 386.05585ZM686.4375 380.35272Q686.4375 379.11835 687.0469 378.25897Q687.6719 377.3996 688.84375 377.3996Q689.9219 377.3996 690.625 378.18085Q691.3281 378.94647 691.3281 380.43085Q691.3281 381.88397 690.6094 382.68085Q689.90625 383.4621 688.8594 383.4621Q687.8125 383.4621 687.125 382.69647Q686.4375 381.91522 686.4375 380.35272ZM688.875 378.36835Q688.3594 378.36835 688.0 378.82147Q687.65625 379.2746 687.65625 380.49335Q687.65625 381.5871 688.0 382.04022Q688.3594 382.49335 688.875 382.49335Q689.40625 382.49335 689.75 382.04022Q690.1094 381.5871 690.1094 380.38397Q690.1094 379.2746 689.75 378.82147Q689.40625 378.36835 688.875 378.36835ZM688.8906 389.47772L695.15625 377.3996L696.2969 377.3996L690.0469 389.47772L688.8906 389.47772ZM693.84375 386.36835Q693.84375 385.13397 694.4531 384.2746Q695.0781 383.41522 696.25 383.41522Q697.3281 383.41522 698.03125 384.19647Q698.75 384.9621 698.75 386.44647Q698.75 387.8996 698.03125 388.69647Q697.3125 389.47772 696.2656 389.47772Q695.21875 389.47772 694.53125 388.69647Q693.84375 387.91522 693.84375 386.36835ZM696.2969 384.38397Q695.7656 384.38397 695.40625 384.8371Q695.0625 385.29022 695.0625 386.50897Q695.0625 387.60272 695.40625 388.05585Q695.7656 388.50897 696.28125 388.50897Q696.8281 388.50897 697.1719 388.05585Q697.5156 387.60272 697.5156 386.3996Q697.5156 385.29022 697.15625 384.8371Q696.8125 384.38397 696.2969 384.38397Z" fill-rule="nonzero"/><path fill="#24292e" d="M31.671875 390.84375Q31.671875 388.8125 32.078125 387.57812Q32.5 386.34375 33.328125 385.67188Q34.15625 385.0 35.40625 385.0Q36.328125 385.0 37.015625 385.375Q37.71875 385.73438 38.171875 386.4375Q38.625 387.14062 38.875 388.14062Q39.140625 389.14062 39.140625 390.84375Q39.140625 392.85938 38.71875 394.10938Q38.3125 395.34375 37.484375 396.03125Q36.65625 396.70312 35.40625 396.70312Q33.75 396.70312 32.796875 395.5Q31.671875 394.07812 31.671875 390.84375ZM33.109375 390.84375Q33.109375 393.67188 33.765625 394.60938Q34.4375 395.53125 35.40625 395.53125Q36.375 395.53125 37.03125 394.59375Q37.6875 393.65625 37.6875 390.84375Q37.6875 388.01562 37.03125 387.09375Q36.375 386.15625 35.390625 386.15625Q34.421875 386.15625 33.84375 386.98438Q33.109375 388.03125 33.109375 390.84375ZM40.9375 387.79688Q40.9375 386.5625 41.546875 385.70312Q42.171875 384.84375 43.34375 384.84375Q44.421875 384.84375 45.125 385.625Q45.828125 386.39062 45.828125 387.875Q45.828125 389.32812 45.109375 390.125Q44.40625 390.90625 43.359375 390.90625Q42.3125 390.90625 41.625 390.14062Q40.9375 389.35938 40.9375 387.79688ZM43.375 385.8125Q42.859375 385.8125 42.5 386.26562Q42.15625 386.71875 42.15625 387.9375Q42.15625 389.03125 42.5 389.48438Q42.859375 389.9375 43.375 389.9375Q43.90625 389.9375 44.25 389.48438Q44.609375 389.03125 44.609375 387.82812Q44.609375 386.71875 44.25 386.26562Q43.90625 385.8125 43.375 385.8125ZM43.390625 396.92188L49.65625 384.84375L50.796875 384.84375L44.546875 396.92188L43.390625 396.92188ZM48.34375 393.8125Q48.34375 392.57812 48.953125 391.71875Q49.578125 390.85938 50.75 390.85938Q51.828125 390.85938 52.53125 391.64062Q53.25 392.40625 53.25 393.89062Q53.25 395.34375 52.53125 396.14062Q51.8125 396.92188 50.765625 396.92188Q49.71875 396.92188 49.03125 396.14062Q48.34375 395.35938 48.34375 393.8125ZM50.796875 391.82812Q50.265625 391.82812 49.90625 392.28125Q49.5625 392.73438 49.5625 393.95312Q49.5625 395.04688 49.90625 395.5Q50.265625 395.95312 50.78125 395.95312Q51.328125 395.95312 51.671875 395.5Q52.015625 395.04688 52.015625 393.84375Q52.015625 392.73438 51.65625 392.28125Q51.3125 391.82812 50.796875 391.82812Z" fill-rule="nonzero"/><path fill="#24292e" d="M30.0625 278.41986L30.0625 279.77924L22.484375 279.77924Q22.46875 279.2636 22.65625 278.79486Q22.9375 278.02924 23.578125 277.27924Q24.21875 276.52924 25.421875 275.54486Q27.28125 274.0136 27.9375 273.123Q28.59375 272.21674 28.59375 271.41986Q28.59375 270.59174 28.0 270.0136Q27.40625 269.4355 26.4375 269.4355Q25.421875 269.4355 24.8125 270.04486Q24.203125 270.65424 24.203125 271.73236L22.75 271.59174Q22.90625 269.96674 23.875 269.123Q24.84375 268.27924 26.46875 268.27924Q28.125 268.27924 29.078125 269.2011Q30.046875 270.10736 30.046875 271.4511Q30.046875 272.1386 29.765625 272.8105Q29.484375 273.46674 28.828125 274.2011Q28.171875 274.9355 26.65625 276.21674Q25.390625 277.27924 25.03125 277.66986Q24.671875 278.04486 24.4375 278.41986L30.0625 278.41986ZM31.671875 276.77924L33.140625 276.65424Q33.3125 277.73236 33.90625 278.27924Q34.5 278.8105 35.34375 278.8105Q36.359375 278.8105 37.0625 278.04486Q37.765625 277.27924 37.765625 276.0136Q37.765625 274.8105 37.09375 274.123Q36.421875 273.41986 35.328125 273.41986Q34.640625 273.41986 34.09375 273.73236Q33.546875 274.04486 33.234375 274.52924L31.921875 274.35736L33.03125 268.48236L38.71875 268.48236L38.71875 269.8261L34.15625 269.8261L33.53125 272.90424Q34.5625 272.1855 35.703125 272.1855Q37.203125 272.1855 38.234375 273.23236Q39.265625 274.2636 39.265625 275.8886Q39.265625 277.4511 38.359375 278.5761Q37.25 279.98236 35.34375 279.98236Q33.78125 279.98236 32.796875 279.10736Q31.8125 278.21674 31.671875 276.77924ZM40.9375 271.0761Q40.9375 269.84174 41.546875 268.98236Q42.171875 268.123 43.34375 268.123Q44.421875 268.123 45.125 268.90424Q45.828125 269.66986 45.828125 271.15424Q45.828125 272.60736 45.109375 273.40424Q44.40625 274.1855 43.359375 274.1855Q42.3125 274.1855 41.625 273.41986Q40.9375 272.6386 40.9375 271.0761ZM43.375 269.09174Q42.859375 269.09174 42.5 269.54486Q42.15625 269.998 42.15625 271.21674Q42.15625 272.3105 42.5 272.7636Q42.859375 273.21674 43.375 273.21674Q43.90625 273.21674 44.25 272.7636Q44.609375 272.3105 44.609375 271.10736Q44.609375 269.998 44.25 269.54486Q43.90625 269.09174 43.375 269.09174ZM43.390625 280.2011L49.65625 268.123L50.796875 268.123L44.546875 280.2011L43.390625 280.2011ZM48.34375 277.09174Q48.34375 275.85736 48.953125 274.998Q49.578125 274.1386 50.75 274.1386Q51.828125 274.1386 52.53125 274.91986Q53.25 275.6855 53.25 277.16986Q53.25 278.623 52.53125 279.41986Q51.8125 280.2011 50.765625 280.2011Q49.71875 280.2011 49.03125 279.41986Q48.34375 278.6386 48.34375 277.09174ZM50.796875 275.10736Q50.265625 275.10736 49.90625 275.5605Q49.5625 276.0136 49.5625 277.23236Q49.5625 278.3261 49.90625 278.77924Q50.265625 279.23236 50.78125 279.23236Q51.328125 279.23236 51.671875 278.77924Q52.015625 278.3261 52.015625 277.123Q52.015625 276.0136 51.65625 275.5605Q51.3125 275.10736 50.796875 275.10736Z" fill-rule="nonzero"/><path fill="#24292e" d="M22.671875 160.05844L24.140625 159.93344Q24.3125 161.01157 24.90625 161.55844Q25.5 162.08969 26.34375 162.08969Q27.359375 162.08969 28.0625 161.32407Q28.765625 160.55844 28.765625 159.29282Q28.765625 158.08969 28.09375 157.40219Q27.421875 156.69907 26.328125 156.69907Q25.640625 156.69907 25.09375 157.01157Q24.546875 157.32407 24.234375 157.80844L22.921875 157.63657L24.03125 151.76157L29.71875 151.76157L29.71875 153.10532L25.15625 153.10532L24.53125 156.18344Q25.5625 155.46469 26.703125 155.46469Q28.203125 155.46469 29.234375 156.51157Q30.265625 157.54282 30.265625 159.16782Q30.265625 160.73032 29.359375 161.85532Q28.25 163.26157 26.34375 163.26157Q24.78125 163.26157 23.796875 162.38657Q22.8125 161.49594 22.671875 160.05844ZM31.671875 157.40219Q31.671875 155.37094 32.078125 154.13657Q32.5 152.90219 33.328125 152.23032Q34.15625 151.55844 35.40625 151.55844Q36.328125 151.55844 37.015625 151.93344Q37.71875 152.29282 38.171875 152.99594Q38.625 153.69907 38.875 154.69907Q39.140625 155.69907 39.140625 157.40219Q39.140625 159.41782 38.71875 160.66782Q38.3125 161.90219 37.484375 162.58969Q36.65625 163.26157 35.40625 163.26157Q33.75 163.26157 32.796875 162.05844Q31.671875 160.63657 31.671875 157.40219ZM33.109375 157.40219Q33.109375 160.23032 33.765625 161.16782Q34.4375 162.08969 35.40625 162.08969Q36.375 162.08969 37.03125 161.15219Q37.6875 160.21469 37.6875 157.40219Q37.6875 154.57407 37.03125 153.65219Q36.375 152.71469 35.390625 152.71469Q34.421875 152.71469 33.84375 153.54282Q33.109375 154.58969 33.109375 157.40219ZM40.9375 154.35532Q40.9375 153.12094 41.546875 152.26157Q42.171875 151.40219 43.34375 151.40219Q44.421875 151.40219 45.125 152.18344Q45.828125 152.94907 45.828125 154.43344Q45.828125 155.88657 45.109375 156.68344Q44.40625 157.46469 43.359375 157.46469Q42.3125 157.46469 41.625 156.69907Q40.9375 155.91782 40.9375 154.35532ZM43.375 152.37094Q42.859375 152.37094 42.5 152.82407Q42.15625 153.27719 42.15625 154.49594Q42.15625 155.58969 42.5 156.04282Q42.859375 156.49594 43.375 156.49594Q43.90625 156.49594 44.25 156.04282Q44.609375 155.58969 44.609375 154.38657Q44.609375 153.27719 44.25 152.82407Q43.90625 152.37094 43.375 152.37094ZM43.390625 163.48032L49.65625 151.40219L50.796875 151.40219L44.546875 163.48032L43.390625 163.48032ZM48.34375 160.37094Q48.34375 159.13657 48.953125 158.27719Q49.578125 157.41782 50.75 157.41782Q51.828125 157.41782 52.53125 158.19907Q53.25 158.96469 53.25 160.44907Q53.25 161.90219 52.53125 162.69907Q51.8125 163.48032 50.765625 163.48032Q49.71875 163.48032 49.03125 162.69907Q48.34375 161.91782 48.34375 160.37094ZM50.796875 158.38657Q50.265625 158.38657 49.90625 158.83969Q49.5625 159.29282 49.5625 160.51157Q49.5625 161.60532 49.90625 162.05844Q50.265625 162.51157 50.78125 162.51157Q51.328125 162.51157 51.671875 162.05844Q52.015625 161.60532 52.015625 160.40219Q52.015625 159.29282 51.65625 158.83969Q51.3125 158.38657 50.796875 158.38657Z" fill-rule="nonzero"/><path fill="#24292e" d="M22.765625 36.384537L22.765625 35.02516L30.171875 35.02516L30.171875 36.11891Q29.078125 37.290787 28.0 39.228287Q26.9375 41.15016 26.34375 43.18141Q25.921875 44.61891 25.8125 46.33766L24.359375 46.33766Q24.390625 44.978287 24.890625 43.072037Q25.40625 41.15016 26.34375 39.384537Q27.296875 37.603287 28.375 36.384537L22.765625 36.384537ZM31.671875 43.33766L33.140625 43.21266Q33.3125 44.290787 33.90625 44.83766Q34.5 45.36891 35.34375 45.36891Q36.359375 45.36891 37.0625 44.603287Q37.765625 43.83766 37.765625 42.572037Q37.765625 41.36891 37.09375 40.68141Q36.421875 39.978287 35.328125 39.978287Q34.640625 39.978287 34.09375 40.290787Q33.546875 40.603287 33.234375 41.08766L31.921875 40.915787L33.03125 35.040787L38.71875 35.040787L38.71875 36.384537L34.15625 36.384537L33.53125 39.46266Q34.5625 38.74391 35.703125 38.74391Q37.203125 38.74391 38.234375 39.790787Q39.265625 40.822037 39.265625 42.447037Q39.265625 44.009537 38.359375 45.134537Q37.25 46.540787 35.34375 46.540787Q33.78125 46.540787 32.796875 45.665787Q31.8125 44.77516 31.671875 43.33766ZM40.9375 37.634537Q40.9375 36.40016 41.546875 35.540787Q42.171875 34.68141 43.34375 34.68141Q44.421875 34.68141 45.125 35.46266Q45.828125 36.228287 45.828125 37.71266Q45.828125 39.165787 45.109375 39.96266Q44.40625 40.74391 43.359375 40.74391Q42.3125 40.74391 41.625 39.978287Q40.9375 39.197037 40.9375 37.634537ZM43.375 35.65016Q42.859375 35.65016 42.5 36.103287Q42.15625 36.55641 42.15625 37.77516Q42.15625 38.86891 42.5 39.322037Q42.859375 39.77516 43.375 39.77516Q43.90625 39.77516 44.25 39.322037Q44.609375 38.86891 44.609375 37.665787Q44.609375 36.55641 44.25 36.103287Q43.90625 35.65016 43.375 35.65016ZM43.390625 46.759537L49.65625 34.68141L50.796875 34.68141L44.546875 46.759537L43.390625 46.759537ZM48.34375 43.65016Q48.34375 42.415787 48.953125 41.55641Q49.578125 40.697037 50.75 40.697037Q51.828125 40.697037 52.53125 41.478287Q53.25 42.24391 53.25 43.728287Q53.25 45.18141 52.53125 45.978287Q51.8125 46.759537 50.765625 46.759537Q49.71875 46.759537 49.03125 45.978287Q48.34375 45.197037 48.34375 43.65016ZM50.796875 41.665787Q50.265625 41.665787 49.90625 42.11891Q49.5625 42.572037 49.5625 43.790787Q49.5625 44.884537 49.90625 45.33766Q50.265625 45.790787 50.78125 45.790787Q51.328125 45.790787 51.671875 45.33766Q52.015625 44.884537 52.015625 43.68141Q52.015625 42.572037 51.65625 42.11891Q51.3125 41.665787 50.796875 41.665787Z" fill-rule="nonzero"/><path fill="#24292e" d="M131.7427 409.98438L133.25833 410.35938Q132.78958 412.23438 131.53958 413.21875Q130.3052 414.20312 128.52396 414.20312Q126.66457 414.20312 125.50832 413.45312Q124.35207 412.6875 123.7427 411.26562Q123.13332 409.82812 123.13332 408.1875Q123.13332 406.39062 123.82082 405.0625Q124.50832 403.73438 125.75832 403.04688Q127.02395 402.34375 128.53958 402.34375Q130.25833 402.34375 131.4302 403.21875Q132.60208 404.09375 133.07083 405.6875L131.57083 406.03125Q131.1802 404.78125 130.41458 404.21875Q129.66458 403.64062 128.50833 403.64062Q127.19582 403.64062 126.3052 404.28125Q125.41457 404.90625 125.0552 405.98438Q124.69582 407.04688 124.69582 408.17188Q124.69582 409.64062 125.1177 410.73438Q125.5552 411.8125 126.44582 412.35938Q127.35207 412.89062 128.39896 412.89062Q129.66458 412.89062 130.53958 412.15625Q131.4302 411.42188 131.7427 409.98438ZM134.8677 409.84375Q134.8677 407.54688 136.14896 406.4375Q137.22708 405.51562 138.75833 405.51562Q140.47708 405.51562 141.5552 406.64062Q142.64896 407.75 142.64896 409.73438Q142.64896 411.32812 142.16458 412.25Q141.6802 413.17188 140.75833 413.6875Q139.85208 414.1875 138.75833 414.1875Q137.02396 414.1875 135.94583 413.07812Q134.8677 411.95312 134.8677 409.84375ZM136.32083 409.84375Q136.32083 411.4375 137.00833 412.23438Q137.71146 413.03125 138.75833 413.03125Q139.8052 413.03125 140.4927 412.23438Q141.19583 411.4375 141.19583 409.79688Q141.19583 408.26562 140.4927 407.46875Q139.8052 406.67188 138.75833 406.67188Q137.71146 406.67188 137.00833 407.46875Q136.32083 408.25 136.32083 409.84375ZM144.39896 414.0L144.39896 405.70312L145.66458 405.70312L145.66458 406.875Q146.57083 405.51562 148.3052 405.51562Q149.0552 405.51562 149.6802 405.78125Q150.3052 406.04688 150.6177 406.48438Q150.9302 406.92188 151.0552 407.53125Q151.13333 407.92188 151.13333 408.89062L151.13333 414.0L149.72708 414.0L149.72708 408.95312Q149.72708 408.09375 149.5552 407.67188Q149.39896 407.23438 148.97708 406.98438Q148.57083 406.73438 148.00833 406.73438Q147.10208 406.73438 146.44583 407.3125Q145.8052 407.875 145.8052 409.46875L145.8052 414.0L144.39896 414.0ZM153.72708 414.0L153.72708 406.79688L152.4927 406.79688L152.4927 405.70312L153.72708 405.70312L153.72708 404.8125Q153.72708 403.98438 153.88333 403.57812Q154.08646 403.03125 154.58646 402.6875Q155.10208 402.34375 156.02396 402.34375Q156.6177 402.34375 157.33646 402.48438L157.13333 403.71875Q156.69583 403.64062 156.3052 403.64062Q155.66458 403.64062 155.39896 403.92188Q155.13333 404.1875 155.13333 404.9375L155.13333 405.70312L156.7427 405.70312L156.7427 406.79688L155.13333 406.79688L155.13333 414.0L153.72708 414.0ZM157.39896 404.15625L157.39896 402.54688L158.8052 402.54688L158.8052 404.15625L157.39896 404.15625ZM157.39896 414.0L157.39896 405.70312L158.8052 405.70312L158.8052 414.0L157.39896 414.0ZM161.13333 414.6875L162.50833 414.89062Q162.58646 415.53125 162.97708 415.8125Q163.50833 416.20312 164.41458 416.20312Q165.38333 416.20312 165.91458 415.8125Q166.44583 415.42188 166.63333 414.71875Q166.7427 414.29688 166.7427 412.90625Q165.82083 414.0 164.44583 414.0Q162.72708 414.0 161.78958 412.76562Q160.85208 411.53125 160.85208 409.79688Q160.85208 408.60938 161.27396 407.60938Q161.71146 406.60938 162.52396 406.0625Q163.35208 405.51562 164.44583 405.51562Q165.91458 405.51562 166.8677 406.70312L166.8677 405.70312L168.16458 405.70312L168.16458 412.875Q168.16458 414.8125 167.77396 415.625Q167.38333 416.4375 166.52396 416.90625Q165.66458 417.375 164.41458 417.375Q162.9302 417.375 162.00833 416.70312Q161.10208 416.03125 161.13333 414.6875ZM162.3052 409.70312Q162.3052 411.32812 162.94583 412.07812Q163.60208 412.82812 164.57083 412.82812Q165.53958 412.82812 166.19583 412.09375Q166.85208 411.34375 166.85208 409.75Q166.85208 408.21875 166.1802 407.45312Q165.50833 406.67188 164.5552 406.67188Q163.6177 406.67188 162.96146 407.4375Q162.3052 408.20312 162.3052 409.70312ZM179.3052 414.0L177.89896 414.0L177.89896 405.03125Q177.38333 405.51562 176.5552 406.0Q175.7427 406.48438 175.08646 406.73438L175.08646 405.375Q176.25833 404.8125 177.13333 404.03125Q178.02396 403.23438 178.39896 402.5L179.3052 402.5L179.3052 414.0Z" fill-rule="nonzero"/><path fill="#24292e" d="M265.57446 409.98438L267.0901 410.35938Q266.62134 412.23438 265.37134 413.21875Q264.13696 414.20312 262.3557 414.20312Q260.49634 414.20312 259.3401 413.45312Q258.18384 412.6875 257.57446 411.26562Q256.9651 409.82812 256.9651 408.1875Q256.9651 406.39062 257.6526 405.0625Q258.3401 403.73438 259.5901 403.04688Q260.8557 402.34375 262.37134 402.34375Q264.0901 402.34375 265.26196 403.21875Q266.43384 404.09375 266.9026 405.6875L265.4026 406.03125Q265.01196 404.78125 264.24634 404.21875Q263.49634 403.64062 262.3401 403.64062Q261.0276 403.64062 260.13696 404.28125Q259.24634 404.90625 258.88696 405.98438Q258.5276 407.04688 258.5276 408.17188Q258.5276 409.64062 258.94946 410.73438Q259.38696 411.8125 260.2776 412.35938Q261.18384 412.89062 262.2307 412.89062Q263.49634 412.89062 264.37134 412.15625Q265.26196 411.42188 265.57446 409.98438ZM268.69946 409.84375Q268.69946 407.54688 269.9807 406.4375Q271.05884 405.51562 272.5901 405.51562Q274.30884 405.51562 275.38696 406.64062Q276.4807 407.75 276.4807 409.73438Q276.4807 411.32812 275.99634 412.25Q275.51196 413.17188 274.5901 413.6875Q273.68384 414.1875 272.5901 414.1875Q270.8557 414.1875 269.7776 413.07812Q268.69946 411.95312 268.69946 409.84375ZM270.1526 409.84375Q270.1526 411.4375 270.8401 412.23438Q271.5432 413.03125 272.5901 413.03125Q273.63696 413.03125 274.32446 412.23438Q275.0276 411.4375 275.0276 409.79688Q275.0276 408.26562 274.32446 407.46875Q273.63696 406.67188 272.5901 406.67188Q271.5432 406.67188 270.8401 407.46875Q270.1526 408.25 270.1526 409.84375ZM278.2307 414.0L278.2307 405.70312L279.49634 405.70312L279.49634 406.875Q280.4026 405.51562 282.13696 405.51562Q282.88696 405.51562 283.51196 405.78125Q284.13696 406.04688 284.44946 406.48438Q284.76196 406.92188 284.88696 407.53125Q284.9651 407.92188 284.9651 408.89062L284.9651 414.0L283.55884 414.0L283.55884 408.95312Q283.55884 408.09375 283.38696 407.67188Q283.2307 407.23438 282.80884 406.98438Q282.4026 406.73438 281.8401 406.73438Q280.93384 406.73438 280.2776 407.3125Q279.63696 407.875 279.63696 409.46875L279.63696 414.0L278.2307 414.0ZM287.55884 414.0L287.55884 406.79688L286.32446 406.79688L286.32446 405.70312L287.55884 405.70312L287.55884 404.8125Q287.55884 403.98438 287.7151 403.57812Q287.9182 403.03125 288.4182 402.6875Q288.93384 402.34375 289.8557 402.34375Q290.44946 402.34375 291.1682 402.48438L290.9651 403.71875Q290.5276 403.64062 290.13696 403.64062Q289.49634 403.64062 289.2307 403.92188Q288.9651 404.1875 288.9651 404.9375L288.9651 405.70312L290.57446 405.70312L290.57446 406.79688L288.9651 406.79688L288.9651 414.0L287.55884 414.0ZM291.2307 404.15625L291.2307 402.54688L292.63696 402.54688L292.63696 404.15625L291.2307 404.15625ZM291.2307 414.0L291.2307 405.70312L292.63696 405.70312L292.63696 414.0L291.2307 414.0ZM294.9651 414.6875L296.3401 414.89062Q296.4182 415.53125 296.80884 415.8125Q297.3401 416.20312 298.24634 416.20312Q299.2151 416.20312 299.74634 415.8125Q300.2776 415.42188 300.4651 414.71875Q300.57446 414.29688 300.57446 412.90625Q299.6526 414.0 298.2776 414.0Q296.55884 414.0 295.62134 412.76562Q294.68384 411.53125 294.68384 409.79688Q294.68384 408.60938 295.1057 407.60938Q295.5432 406.60938 296.3557 406.0625Q297.18384 405.51562 298.2776 405.51562Q299.74634 405.51562 300.69946 406.70312L300.69946 405.70312L301.99634 405.70312L301.99634 412.875Q301.99634 414.8125 301.6057 415.625Q301.2151 416.4375 300.3557 416.90625Q299.49634 417.375 298.24634 417.375Q296.76196 417.375 295.8401 416.70312Q294.93384 416.03125 294.9651 414.6875ZM296.13696 409.70312Q296.13696 411.32812 296.7776 412.07812Q297.43384 412.82812 298.4026 412.82812Q299.37134 412.82812 300.0276 412.09375Q300.68384 411.34375 300.68384 409.75Q300.68384 408.21875 300.01196 407.45312Q299.3401 406.67188 298.38696 406.67188Q297.44946 406.67188 296.7932 407.4375Q296.13696 408.20312 296.13696 409.70312ZM315.2307 412.64062L315.2307 414.0L307.6526 414.0Q307.63696 413.48438 307.82446 413.01562Q308.1057 412.25 308.74634 411.5Q309.38696 410.75 310.5901 409.76562Q312.44946 408.23438 313.1057 407.34375Q313.76196 406.4375 313.76196 405.64062Q313.76196 404.8125 313.1682 404.23438Q312.57446 403.65625 311.6057 403.65625Q310.5901 403.65625 309.9807 404.26562Q309.37134 404.875 309.37134 405.95312L307.9182 405.8125Q308.07446 404.1875 309.0432 403.34375Q310.01196 402.5 311.63696 402.5Q313.2932 402.5 314.24634 403.42188Q315.2151 404.32812 315.2151 405.67188Q315.2151 406.35938 314.93384 407.03125Q314.6526 407.6875 313.99634 408.42188Q313.3401 409.15625 311.82446 410.4375Q310.55884 411.5 310.19946 411.89062Q309.8401 412.26562 309.6057 412.64062L315.2307 412.64062Z" fill-rule="nonzero"/><path fill="#24292e" d="M399.40625 409.98438L400.92188 410.35938Q400.45312 412.23438 399.20312 413.21875Q397.96875 414.20312 396.1875 414.20312Q394.32812 414.20312 393.17188 413.45312Q392.01562 412.6875 391.40625 411.26562Q390.79688 409.82812 390.79688 408.1875Q390.79688 406.39062 391.48438 405.0625Q392.17188 403.73438 393.42188 403.04688Q394.6875 402.34375 396.20312 402.34375Q397.92188 402.34375 399.09375 403.21875Q400.26562 404.09375 400.73438 405.6875L399.23438 406.03125Q398.84375 404.78125 398.07812 404.21875Q397.32812 403.64062 396.17188 403.64062Q394.85938 403.64062 393.96875 404.28125Q393.07812 404.90625 392.71875 405.98438Q392.35938 407.04688 392.35938 408.17188Q392.35938 409.64062 392.78125 410.73438Q393.21875 411.8125 394.10938 412.35938Q395.01562 412.89062 396.0625 412.89062Q397.32812 412.89062 398.20312 412.15625Q399.09375 411.42188 399.40625 409.98438ZM402.53125 409.84375Q402.53125 407.54688 403.8125 406.4375Q404.89062 405.51562 406.42188 405.51562Q408.14062 405.51562 409.21875 406.64062Q410.3125 407.75 410.3125 409.73438Q410.3125 411.32812 409.82812 412.25Q409.34375 413.17188 408.42188 413.6875Q407.51562 414.1875 406.42188 414.1875Q404.6875 414.1875 403.60938 413.07812Q402.53125 411.95312 402.53125 409.84375ZM403.98438 409.84375Q403.98438 411.4375 404.67188 412.23438Q405.375 413.03125 406.42188 413.03125Q407.46875 413.03125 408.15625 412.23438Q408.85938 411.4375 408.85938 409.79688Q408.85938 408.26562 408.15625 407.46875Q407.46875 406.67188 406.42188 406.67188Q405.375 406.67188 404.67188 407.46875Q403.98438 408.25 403.98438 409.84375ZM412.0625 414.0L412.0625 405.70312L413.32812 405.70312L413.32812 406.875Q414.23438 405.51562 415.96875 405.51562Q416.71875 405.51562 417.34375 405.78125Q417.96875 406.04688 418.28125 406.48438Q418.59375 406.92188 418.71875 407.53125Q418.79688 407.92188 418.79688 408.89062L418.79688 414.0L417.39062 414.0L417.39062 408.95312Q417.39062 408.09375 417.21875 407.67188Q417.0625 407.23438 416.64062 406.98438Q416.23438 406.73438 415.67188 406.73438Q414.76562 406.73438 414.10938 407.3125Q413.46875 407.875 413.46875 409.46875L413.46875 414.0L412.0625 414.0ZM421.39062 414.0L421.39062 406.79688L420.15625 406.79688L420.15625 405.70312L421.39062 405.70312L421.39062 404.8125Q421.39062 403.98438 421.54688 403.57812Q421.75 403.03125 422.25 402.6875Q422.76562 402.34375 423.6875 402.34375Q424.28125 402.34375 425.0 402.48438L424.79688 403.71875Q424.35938 403.64062 423.96875 403.64062Q423.32812 403.64062 423.0625 403.92188Q422.79688 404.1875 422.79688 404.9375L422.79688 405.70312L424.40625 405.70312L424.40625 406.79688L422.79688 406.79688L422.79688 414.0L421.39062 414.0ZM425.0625 404.15625L425.0625 402.54688L426.46875 402.54688L426.46875 404.15625L425.0625 404.15625ZM425.0625 414.0L425.0625 405.70312L426.46875 405.70312L426.46875 414.0L425.0625 414.0ZM428.79688 414.6875L430.17188 414.89062Q430.25 415.53125 430.64062 415.8125Q431.17188 416.20312 432.07812 416.20312Q433.04688 416.20312 433.57812 415.8125Q434.10938 415.42188 434.29688 414.71875Q434.40625 414.29688 434.40625 412.90625Q433.48438 414.0 432.10938 414.0Q430.39062 414.0 429.45312 412.76562Q428.51562 411.53125 428.51562 409.79688Q428.51562 408.60938 428.9375 407.60938Q429.375 406.60938 430.1875 406.0625Q431.01562 405.51562 432.10938 405.51562Q433.57812 405.51562 434.53125 406.70312L434.53125 405.70312L435.82812 405.70312L435.82812 412.875Q435.82812 414.8125 435.4375 415.625Q435.04688 416.4375 434.1875 416.90625Q433.32812 417.375 432.07812 417.375Q430.59375 417.375 429.67188 416.70312Q428.76562 416.03125 428.79688 414.6875ZM429.96875 409.70312Q429.96875 411.32812 430.60938 412.07812Q431.26562 412.82812 432.23438 412.82812Q433.20312 412.82812 433.85938 412.09375Q434.51562 411.34375 434.51562 409.75Q434.51562 408.21875 433.84375 407.45312Q433.17188 406.67188 432.21875 406.67188Q431.28125 406.67188 430.625 407.4375Q429.96875 408.20312 429.96875 409.70312ZM441.67188 410.96875L443.07812 410.78125Q443.32812 411.98438 443.90625 412.51562Q444.48438 413.03125 445.32812 413.03125Q446.3125 413.03125 447.0 412.34375Q447.6875 411.65625 447.6875 410.64062Q447.6875 409.67188 447.04688 409.04688Q446.42188 408.42188 445.4375 408.42188Q445.04688 408.42188 444.45312 408.57812L444.60938 407.34375Q444.75 407.35938 444.82812 407.35938Q445.73438 407.35938 446.45312 406.89062Q447.17188 406.42188 447.17188 405.4375Q447.17188 404.67188 446.64062 404.17188Q446.125 403.65625 445.29688 403.65625Q444.46875 403.65625 443.92188 404.17188Q443.375 404.6875 443.21875 405.71875L441.8125 405.46875Q442.07812 404.04688 442.98438 403.28125Q443.90625 402.5 445.26562 402.5Q446.20312 402.5 446.98438 402.90625Q447.78125 403.29688 448.1875 404.0Q448.60938 404.6875 448.60938 405.46875Q448.60938 406.21875 448.20312 406.82812Q447.8125 407.4375 447.03125 407.79688Q448.04688 408.03125 448.60938 408.76562Q449.17188 409.5 449.17188 410.60938Q449.17188 412.10938 448.07812 413.15625Q446.98438 414.20312 445.3125 414.20312Q443.8125 414.20312 442.8125 413.3125Q441.8125 412.40625 441.67188 410.96875Z" fill-rule="nonzero"/><path fill="#24292e" d="M533.23804 409.98438L534.75366 410.35938Q534.2849 412.23438 533.0349 413.21875Q531.80054 414.20312 530.0193 414.20312Q528.1599 414.20312 527.00366 413.45312Q525.8474 412.6875 525.23804 411.26562Q524.62866 409.82812 524.62866 408.1875Q524.62866 406.39062 525.31616 405.0625Q526.00366 403.73438 527.25366 403.04688Q528.5193 402.34375 530.0349 402.34375Q531.75366 402.34375 532.92554 403.21875Q534.0974 404.09375 534.56616 405.6875L533.06616 406.03125Q532.67554 404.78125 531.9099 404.21875Q531.1599 403.64062 530.00366 403.64062Q528.69116 403.64062 527.80054 404.28125Q526.9099 404.90625 526.55054 405.98438Q526.19116 407.04688 526.19116 408.17188Q526.19116 409.64062 526.61304 410.73438Q527.05054 411.8125 527.94116 412.35938Q528.8474 412.89062 529.8943 412.89062Q531.1599 412.89062 532.0349 412.15625Q532.92554 411.42188 533.23804 409.98438ZM536.36304 409.84375Q536.36304 407.54688 537.6443 406.4375Q538.7224 405.51562 540.25366 405.51562Q541.9724 405.51562 543.05054 406.64062Q544.1443 407.75 544.1443 409.73438Q544.1443 411.32812 543.6599 412.25Q543.17554 413.17188 542.25366 413.6875Q541.3474 414.1875 540.25366 414.1875Q538.5193 414.1875 537.44116 413.07812Q536.36304 411.95312 536.36304 409.84375ZM537.81616 409.84375Q537.81616 411.4375 538.50366 412.23438Q539.2068 413.03125 540.25366 413.03125Q541.30054 413.03125 541.98804 412.23438Q542.69116 411.4375 542.69116 409.79688Q542.69116 408.26562 541.98804 407.46875Q541.30054 406.67188 540.25366 406.67188Q539.2068 406.67188 538.50366 407.46875Q537.81616 408.25 537.81616 409.84375ZM545.8943 414.0L545.8943 405.70312L547.1599 405.70312L547.1599 406.875Q548.06616 405.51562 549.80054 405.51562Q550.55054 405.51562 551.17554 405.78125Q551.80054 406.04688 552.11304 406.48438Q552.42554 406.92188 552.55054 407.53125Q552.62866 407.92188 552.62866 408.89062L552.62866 414.0L551.2224 414.0L551.2224 408.95312Q551.2224 408.09375 551.05054 407.67188Q550.8943 407.23438 550.4724 406.98438Q550.06616 406.73438 549.50366 406.73438Q548.5974 406.73438 547.94116 407.3125Q547.30054 407.875 547.30054 409.46875L547.30054 414.0L545.8943 414.0ZM555.2224 414.0L555.2224 406.79688L553.98804 406.79688L553.98804 405.70312L555.2224 405.70312L555.2224 404.8125Q555.2224 403.98438 555.37866 403.57812Q555.5818 403.03125 556.0818 402.6875Q556.5974 402.34375 557.5193 402.34375Q558.11304 402.34375 558.8318 402.48438L558.62866 403.71875Q558.19116 403.64062 557.80054 403.64062Q557.1599 403.64062 556.8943 403.92188Q556.62866 404.1875 556.62866 404.9375L556.62866 405.70312L558.23804 405.70312L558.23804 406.79688L556.62866 406.79688L556.62866 414.0L555.2224 414.0ZM558.8943 404.15625L558.8943 402.54688L560.30054 402.54688L560.30054 404.15625L558.8943 404.15625ZM558.8943 414.0L558.8943 405.70312L560.30054 405.70312L560.30054 414.0L558.8943 414.0ZM562.62866 414.6875L564.00366 414.89062Q564.0818 415.53125 564.4724 415.8125Q565.00366 416.20312 565.9099 416.20312Q566.87866 416.20312 567.4099 415.8125Q567.94116 415.42188 568.12866 414.71875Q568.23804 414.29688 568.23804 412.90625Q567.31616 414.0 565.94116 414.0Q564.2224 414.0 563.2849 412.76562Q562.3474 411.53125 562.3474 409.79688Q562.3474 408.60938 562.7693 407.60938Q563.2068 406.60938 564.0193 406.0625Q564.8474 405.51562 565.94116 405.51562Q567.4099 405.51562 568.36304 406.70312L568.36304 405.70312L569.6599 405.70312L569.6599 412.875Q569.6599 414.8125 569.2693 415.625Q568.87866 416.4375 568.0193 416.90625Q567.1599 417.375 565.9099 417.375Q564.42554 417.375 563.50366 416.70312Q562.5974 416.03125 562.62866 414.6875ZM563.80054 409.70312Q563.80054 411.32812 564.44116 412.07812Q565.0974 412.82812 566.06616 412.82812Q567.0349 412.82812 567.69116 412.09375Q568.3474 411.34375 568.3474 409.75Q568.3474 408.21875 567.67554 407.45312Q567.00366 406.67188 566.05054 406.67188Q565.11304 406.67188 564.4568 407.4375Q563.80054 408.20312 563.80054 409.70312ZM580.00366 414.0L580.00366 411.25L575.0349 411.25L575.0349 409.96875L580.2693 402.54688L581.4099 402.54688L581.4099 409.96875L582.9568 409.96875L582.9568 411.25L581.4099 411.25L581.4099 414.0L580.00366 414.0ZM580.00366 409.96875L580.00366 404.79688L576.42554 409.96875L580.00366 409.96875Z" fill-rule="nonzero"/><path fill="#24292e" d="M667.0698 409.98438L668.58545 410.35938Q668.1167 412.23438 666.8667 413.21875Q665.6323 414.20312 663.8511 414.20312Q661.9917 414.20312 660.83545 413.45312Q659.6792 412.6875 659.0698 411.26562Q658.46045 409.82812 658.46045 408.1875Q658.46045 406.39062 659.14795 405.0625Q659.83545 403.73438 661.08545 403.04688Q662.3511 402.34375 663.8667 402.34375Q665.58545 402.34375 666.7573 403.21875Q667.9292 404.09375 668.39795 405.6875L666.89795 406.03125Q666.5073 404.78125 665.7417 404.21875Q664.9917 403.64062 663.83545 403.64062Q662.52295 403.64062 661.6323 404.28125Q660.7417 404.90625 660.3823 405.98438Q660.02295 407.04688 660.02295 408.17188Q660.02295 409.64062 660.4448 410.73438Q660.8823 411.8125 661.77295 412.35938Q662.6792 412.89062 663.7261 412.89062Q664.9917 412.89062 665.8667 412.15625Q666.7573 411.42188 667.0698 409.98438ZM670.1948 409.84375Q670.1948 407.54688 671.4761 406.4375Q672.5542 405.51562 674.08545 405.51562Q675.8042 405.51562 676.8823 406.64062Q677.9761 407.75 677.9761 409.73438Q677.9761 411.32812 677.4917 412.25Q677.0073 413.17188 676.08545 413.6875Q675.1792 414.1875 674.08545 414.1875Q672.3511 414.1875 671.27295 413.07812Q670.1948 411.95312 670.1948 409.84375ZM671.64795 409.84375Q671.64795 411.4375 672.33545 412.23438Q673.0386 413.03125 674.08545 413.03125Q675.1323 413.03125 675.8198 412.23438Q676.52295 411.4375 676.52295 409.79688Q676.52295 408.26562 675.8198 407.46875Q675.1323 406.67188 674.08545 406.67188Q673.0386 406.67188 672.33545 407.46875Q671.64795 408.25 671.64795 409.84375ZM679.7261 414.0L679.7261 405.70312L680.9917 405.70312L680.9917 406.875Q681.89795 405.51562 683.6323 405.51562Q684.3823 405.51562 685.0073 405.78125Q685.6323 406.04688 685.9448 406.48438Q686.2573 406.92188 686.3823 407.53125Q686.46045 407.92188 686.46045 408.89062L686.46045 414.0L685.0542 414.0L685.0542 408.95312Q685.0542 408.09375 684.8823 407.67188Q684.7261 407.23438 684.3042 406.98438Q683.89795 406.73438 683.33545 406.73438Q682.4292 406.73438 681.77295 407.3125Q681.1323 407.875 681.1323 409.46875L681.1323 414.0L679.7261 414.0ZM689.0542 414.0L689.0542 406.79688L687.8198 406.79688L687.8198 405.70312L689.0542 405.70312L689.0542 404.8125Q689.0542 403.98438 689.21045 403.57812Q689.4136 403.03125 689.9136 402.6875Q690.4292 402.34375 691.3511 402.34375Q691.9448 402.34375 692.6636 402.48438L692.46045 403.71875Q692.02295 403.64062 691.6323 403.64062Q690.9917 403.64062 690.7261 403.92188Q690.46045 404.1875 690.46045 404.9375L690.46045 405.70312L692.0698 405.70312L692.0698 406.79688L690.46045 406.79688L690.46045 414.0L689.0542 414.0ZM692.7261 404.15625L692.7261 402.54688L694.1323 402.54688L694.1323 404.15625L692.7261 404.15625ZM692.7261 414.0L692.7261 405.70312L694.1323 405.70312L694.1323 414.0L692.7261 414.0ZM696.46045 414.6875L697.83545 414.89062Q697.9136 415.53125 698.3042 415.8125Q698.83545 416.20312 699.7417 416.20312Q700.71045 416.20312 701.2417 415.8125Q701.77295 415.42188 701.96045 414.71875Q702.0698 414.29688 702.0698 412.90625Q701.14795 414.0 699.77295 414.0Q698.0542 414.0 697.1167 412.76562Q696.1792 411.53125 696.1792 409.79688Q696.1792 408.60938 696.6011 407.60938Q697.0386 406.60938 697.8511 406.0625Q698.6792 405.51562 699.77295 405.51562Q701.2417 405.51562 702.1948 406.70312L702.1948 405.70312L703.4917 405.70312L703.4917 412.875Q703.4917 414.8125 703.1011 415.625Q702.71045 416.4375 701.8511 416.90625Q700.9917 417.375 699.7417 417.375Q698.2573 417.375 697.33545 416.70312Q696.4292 416.03125 696.46045 414.6875ZM697.6323 409.70312Q697.6323 411.32812 698.27295 412.07812Q698.9292 412.82812 699.89795 412.82812Q700.8667 412.82812 701.52295 412.09375Q702.1792 411.34375 702.1792 409.75Q702.1792 408.21875 701.5073 407.45312Q700.83545 406.67188 699.8823 406.67188Q698.9448 406.67188 698.2886 407.4375Q697.6323 408.20312 697.6323 409.70312ZM709.33545 411.0L710.8042 410.875Q710.9761 411.95312 711.5698 412.5Q712.1636 413.03125 713.0073 413.03125Q714.02295 413.03125 714.7261 412.26562Q715.4292 411.5 715.4292 410.23438Q715.4292 409.03125 714.7573 408.34375Q714.08545 407.64062 712.9917 407.64062Q712.3042 407.64062 711.7573 407.95312Q711.21045 408.26562 710.89795 408.75L709.58545 408.57812L710.6948 402.70312L716.3823 402.70312L716.3823 404.04688L711.8198 404.04688L711.1948 407.125Q712.2261 406.40625 713.3667 406.40625Q714.8667 406.40625 715.89795 407.45312Q716.9292 408.48438 716.9292 410.10938Q716.9292 411.67188 716.02295 412.79688Q714.9136 414.20312 713.0073 414.20312Q711.4448 414.20312 710.46045 413.32812Q709.4761 412.4375 709.33545 411.0Z" fill-rule="nonzero"/></svg>